<?xml version="1.0" encoding="UTF-8"?>
<svg xmlns="http://www.w3.org/2000/svg" xmlns:xlink="http://www.w3.org/1999/xlink" width="188.799pt" height="142.227pt" viewBox="0 0 188.799 142.227">
<defs>
<g>
<g id="glyph-0-0">
<path d="M 5.15625 -4.703125 C 5.15625 -4.8125 5.15625 -4.875 5.0625 -4.875 C 5.03125 -4.875 5 -4.875 4.953125 -4.796875 L 4.578125 -4.265625 C 4.28125 -4.5625 3.8125 -4.875 3.140625 -4.875 C 1.6875 -4.875 0.484375 -3.75 0.484375 -2.375 C 0.484375 -0.96875 1.703125 0.140625 3.140625 0.140625 C 4.375 0.140625 5.15625 -0.78125 5.15625 -1.625 C 5.15625 -1.703125 5.15625 -1.75 5.046875 -1.75 C 5 -1.75 4.9375 -1.75 4.921875 -1.671875 C 4.875 -0.546875 3.921875 -0.109375 3.234375 -0.109375 C 2.5 -0.109375 1.234375 -0.5625 1.234375 -2.359375 C 1.234375 -4.25 2.578125 -4.625 3.21875 -4.625 C 3.90625 -4.625 4.734375 -4.171875 4.90625 -2.96875 C 4.921875 -2.890625 4.984375 -2.890625 5.03125 -2.890625 C 5.15625 -2.890625 5.15625 -2.9375 5.15625 -3.078125 Z M 5.15625 -4.703125 "/>
</g>
<g id="glyph-0-1">
<path d="M 3.671875 -1.484375 C 3.671875 -2.34375 2.921875 -3.09375 1.96875 -3.09375 C 1.015625 -3.09375 0.265625 -2.34375 0.265625 -1.484375 C 0.265625 -0.625 1.03125 0.0625 1.96875 0.0625 C 2.90625 0.0625 3.671875 -0.625 3.671875 -1.484375 Z M 1.96875 -0.15625 C 1.71875 -0.15625 1.34375 -0.234375 1.109375 -0.578125 C 0.921875 -0.859375 0.90625 -1.21875 0.90625 -1.546875 C 0.90625 -1.84375 0.90625 -2.25 1.15625 -2.546875 C 1.328125 -2.75 1.609375 -2.90625 1.96875 -2.90625 C 2.375 -2.90625 2.671875 -2.703125 2.828125 -2.484375 C 3.015625 -2.21875 3.03125 -1.875 3.03125 -1.546875 C 3.03125 -1.203125 3.015625 -0.84375 2.8125 -0.5625 C 2.625 -0.296875 2.3125 -0.15625 1.96875 -0.15625 Z M 1.96875 -0.15625 "/>
</g>
<g id="glyph-0-2">
<path d="M 3.578125 -2.109375 C 3.578125 -2.703125 3.28125 -3.0625 2.53125 -3.0625 C 1.96875 -3.0625 1.59375 -2.75 1.40625 -2.390625 L 1.390625 -2.390625 L 1.390625 -3.0625 L 0.375 -2.984375 L 0.375 -2.734375 C 0.84375 -2.734375 0.890625 -2.6875 0.890625 -2.34375 L 0.890625 -0.546875 C 0.890625 -0.25 0.828125 -0.25 0.375 -0.25 L 0.375 0 C 0.390625 0 0.875 -0.03125 1.171875 -0.03125 C 1.421875 -0.03125 1.90625 0 1.96875 0 L 1.96875 -0.25 C 1.515625 -0.25 1.4375 -0.25 1.4375 -0.546875 L 1.4375 -1.796875 C 1.4375 -2.53125 2.015625 -2.859375 2.484375 -2.859375 C 2.96875 -2.859375 3.03125 -2.484375 3.03125 -2.125 L 3.03125 -0.546875 C 3.03125 -0.25 2.953125 -0.25 2.5 -0.25 L 2.5 0 C 2.515625 0 3 -0.03125 3.296875 -0.03125 C 3.546875 -0.03125 4.03125 0 4.09375 0 L 4.09375 -0.25 C 3.640625 -0.25 3.578125 -0.25 3.578125 -0.546875 Z M 3.578125 -2.109375 "/>
</g>
<g id="glyph-0-3">
<path d="M 2.46875 -4.734375 L 2.46875 -4.484375 C 2.9375 -4.484375 2.984375 -4.4375 2.984375 -4.09375 L 2.984375 -2.65625 C 2.734375 -2.90625 2.40625 -3.0625 2.015625 -3.0625 C 1.09375 -3.0625 0.3125 -2.359375 0.3125 -1.484375 C 0.3125 -0.625 1.046875 0.0625 1.9375 0.0625 C 2.5 0.0625 2.84375 -0.234375 2.96875 -0.359375 L 2.96875 0.0625 L 4.03125 0 L 4.03125 -0.25 C 3.5625 -0.25 3.515625 -0.296875 3.515625 -0.640625 L 3.515625 -4.8125 Z M 2.96875 -0.734375 C 2.78125 -0.40625 2.421875 -0.125 1.984375 -0.125 C 1.59375 -0.125 1.3125 -0.359375 1.171875 -0.5625 C 1.03125 -0.765625 0.953125 -1.046875 0.953125 -1.484375 C 0.953125 -1.640625 0.953125 -2.171875 1.234375 -2.484375 C 1.515625 -2.796875 1.859375 -2.859375 2.046875 -2.859375 C 2.390625 -2.859375 2.6875 -2.71875 2.875 -2.46875 C 2.96875 -2.359375 2.96875 -2.34375 2.96875 -2.21875 Z M 2.96875 -0.734375 "/>
</g>
<g id="glyph-0-4">
<path d="M 3.046875 -1.578125 C 3.203125 -1.578125 3.25 -1.578125 3.25 -1.734375 C 3.25 -2.34375 2.90625 -3.09375 1.875 -3.09375 C 0.96875 -3.09375 0.265625 -2.375 0.265625 -1.515625 C 0.265625 -0.640625 1.046875 0.0625 1.96875 0.0625 C 2.90625 0.0625 3.25 -0.6875 3.25 -0.828125 C 3.25 -0.859375 3.234375 -0.921875 3.125 -0.921875 C 3.03125 -0.921875 3.03125 -0.890625 3 -0.8125 C 2.78125 -0.25 2.265625 -0.15625 2.015625 -0.15625 C 1.6875 -0.15625 1.375 -0.296875 1.171875 -0.5625 C 0.90625 -0.890625 0.90625 -1.3125 0.90625 -1.578125 Z M 0.90625 -1.765625 C 0.984375 -2.734375 1.609375 -2.90625 1.875 -2.90625 C 2.71875 -2.90625 2.75 -1.9375 2.765625 -1.765625 Z M 0.90625 -1.765625 "/>
</g>
<g id="glyph-0-5">
<path d="M 2.625 -2.90625 C 2.625 -3.03125 2.625 -3.09375 2.53125 -3.09375 C 2.5 -3.09375 2.484375 -3.09375 2.390625 -3.015625 C 2.375 -3 2.3125 -2.9375 2.265625 -2.90625 C 2.0625 -3.046875 1.796875 -3.09375 1.546875 -3.09375 C 0.546875 -3.09375 0.3125 -2.578125 0.3125 -2.234375 C 0.3125 -2 0.40625 -1.828125 0.578125 -1.6875 C 0.84375 -1.453125 1.109375 -1.40625 1.53125 -1.34375 C 1.875 -1.28125 2.4375 -1.171875 2.4375 -0.71875 C 2.4375 -0.4375 2.25 -0.125 1.59375 -0.125 C 0.921875 -0.125 0.6875 -0.5625 0.5625 -1.03125 C 0.53125 -1.125 0.53125 -1.15625 0.4375 -1.15625 C 0.3125 -1.15625 0.3125 -1.109375 0.3125 -0.96875 L 0.3125 -0.109375 C 0.3125 0 0.3125 0.0625 0.40625 0.0625 C 0.46875 0.0625 0.609375 -0.078125 0.75 -0.234375 C 1.046875 0.0625 1.421875 0.0625 1.59375 0.0625 C 2.484375 0.0625 2.828125 -0.421875 2.828125 -0.90625 C 2.828125 -1.171875 2.703125 -1.375 2.53125 -1.546875 C 2.265625 -1.796875 1.9375 -1.84375 1.703125 -1.890625 C 1.140625 -1.984375 0.6875 -2.0625 0.6875 -2.4375 C 0.6875 -2.65625 0.875 -2.921875 1.546875 -2.921875 C 2.34375 -2.921875 2.375 -2.359375 2.390625 -2.171875 C 2.40625 -2.09375 2.484375 -2.09375 2.515625 -2.09375 C 2.625 -2.09375 2.625 -2.140625 2.625 -2.265625 Z M 2.625 -2.90625 "/>
</g>
<g id="glyph-0-6">
<path d="M 1.375 -1.578125 C 1.375 -2.171875 1.65625 -2.859375 2.3125 -2.859375 C 2.25 -2.8125 2.1875 -2.71875 2.1875 -2.609375 C 2.1875 -2.390625 2.375 -2.296875 2.5 -2.296875 C 2.671875 -2.296875 2.828125 -2.40625 2.828125 -2.609375 C 2.828125 -2.84375 2.609375 -3.0625 2.28125 -3.0625 C 1.921875 -3.0625 1.546875 -2.84375 1.34375 -2.3125 L 1.328125 -2.3125 L 1.328125 -3.0625 L 0.34375 -2.984375 L 0.34375 -2.734375 C 0.8125 -2.734375 0.859375 -2.6875 0.859375 -2.34375 L 0.859375 -0.546875 C 0.859375 -0.25 0.796875 -0.25 0.34375 -0.25 L 0.34375 0 C 0.375 0 0.84375 -0.03125 1.125 -0.03125 C 1.421875 -0.03125 1.734375 -0.015625 2.03125 0 L 2.03125 -0.25 L 1.890625 -0.25 C 1.375 -0.25 1.375 -0.328125 1.375 -0.5625 Z M 1.375 -1.578125 "/>
</g>
<g id="glyph-0-7">
<path d="M 5.046875 -1.828125 L 4.8125 -1.828125 C 4.640625 -0.78125 4.46875 -0.25 3.1875 -0.25 L 2.09375 -0.25 C 1.765625 -0.25 1.765625 -0.3125 1.765625 -0.515625 L 1.765625 -2.328125 L 2.46875 -2.328125 C 3.15625 -2.328125 3.265625 -2.109375 3.265625 -1.515625 L 3.5 -1.515625 L 3.5 -3.390625 L 3.265625 -3.390625 C 3.265625 -2.78125 3.15625 -2.578125 2.46875 -2.578125 L 1.765625 -2.578125 L 1.765625 -4.1875 C 1.765625 -4.40625 1.765625 -4.453125 2.09375 -4.453125 L 3.140625 -4.453125 C 4.28125 -4.453125 4.46875 -4.09375 4.59375 -3.109375 L 4.828125 -3.109375 L 4.625 -4.703125 L 0.390625 -4.703125 L 0.390625 -4.453125 L 0.5625 -4.453125 C 1.09375 -4.453125 1.109375 -4.390625 1.109375 -4.15625 L 1.109375 -0.5625 C 1.109375 -0.328125 1.09375 -0.25 0.5625 -0.25 L 0.390625 -0.25 L 0.390625 0 L 4.734375 0 Z M 5.046875 -1.828125 "/>
</g>
<g id="glyph-0-8">
<path d="M 3.28125 -2.3125 C 3.484375 -2.734375 3.828125 -2.734375 3.9375 -2.734375 L 3.9375 -2.984375 C 3.765625 -2.96875 3.59375 -2.96875 3.40625 -2.96875 C 3.21875 -2.96875 2.96875 -2.96875 2.78125 -2.984375 L 2.78125 -2.734375 C 3.078125 -2.71875 3.078125 -2.5 3.078125 -2.484375 C 3.078125 -2.4375 3.0625 -2.375 3.015625 -2.28125 L 2.234375 -0.5625 L 1.375 -2.453125 C 1.375 -2.453125 1.328125 -2.53125 1.328125 -2.578125 C 1.328125 -2.734375 1.5625 -2.734375 1.6875 -2.734375 L 1.6875 -2.984375 C 1.671875 -2.984375 1.171875 -2.96875 0.890625 -2.96875 C 0.6875 -2.96875 0.421875 -2.96875 0.21875 -2.984375 L 0.21875 -2.734375 C 0.59375 -2.734375 0.6875 -2.71875 0.78125 -2.484375 L 1.875 -0.078125 C 1.921875 0 1.953125 0.0625 2.078125 0.0625 C 2.203125 0.0625 2.234375 0 2.265625 -0.0625 Z M 3.28125 -2.3125 "/>
</g>
<g id="glyph-0-9">
<path d="M 3.09375 -1.859375 C 3.09375 -2.234375 3.09375 -2.484375 2.78125 -2.75 C 2.484375 -2.984375 2.15625 -3.09375 1.75 -3.09375 C 1.09375 -3.09375 0.625 -2.84375 0.625 -2.421875 C 0.625 -2.203125 0.78125 -2.078125 0.953125 -2.078125 C 1.140625 -2.078125 1.28125 -2.21875 1.28125 -2.40625 C 1.28125 -2.53125 1.234375 -2.671875 1.046875 -2.71875 C 1.296875 -2.90625 1.6875 -2.90625 1.734375 -2.90625 C 2.125 -2.90625 2.546875 -2.640625 2.546875 -2.0625 L 2.546875 -1.84375 C 2.171875 -1.828125 1.703125 -1.8125 1.203125 -1.625 C 0.578125 -1.390625 0.375 -1.015625 0.375 -0.703125 C 0.375 -0.109375 1.109375 0.0625 1.59375 0.0625 C 2.15625 0.0625 2.484375 -0.25 2.625 -0.515625 C 2.65625 -0.234375 2.84375 0.03125 3.15625 0.03125 C 3.171875 0.03125 3.84375 0.03125 3.84375 -0.625 L 3.84375 -1 L 3.609375 -1 L 3.609375 -0.625 C 3.609375 -0.5625 3.609375 -0.234375 3.34375 -0.234375 C 3.09375 -0.234375 3.09375 -0.5625 3.09375 -0.640625 Z M 2.546875 -0.984375 C 2.546875 -0.3125 1.96875 -0.125 1.65625 -0.125 C 1.296875 -0.125 0.96875 -0.359375 0.96875 -0.703125 C 0.96875 -1.078125 1.296875 -1.609375 2.546875 -1.671875 Z M 2.546875 -0.984375 "/>
</g>
<g id="glyph-0-10">
<path d="M 1.921875 1.09375 C 1.484375 1.09375 1.40625 1.09375 1.40625 0.796875 L 1.40625 -0.328125 C 1.4375 -0.296875 1.765625 0.0625 2.359375 0.0625 C 3.265625 0.0625 4.046875 -0.625 4.046875 -1.5 C 4.046875 -2.359375 3.34375 -3.0625 2.46875 -3.0625 C 2.0625 -3.0625 1.671875 -2.90625 1.375 -2.640625 L 1.375 -3.0625 L 0.34375 -2.984375 L 0.34375 -2.734375 C 0.828125 -2.734375 0.859375 -2.703125 0.859375 -2.40625 L 0.859375 0.796875 C 0.859375 1.09375 0.796875 1.09375 0.34375 1.09375 L 0.34375 1.34375 C 0.359375 1.34375 0.84375 1.3125 1.125 1.3125 C 1.390625 1.3125 1.859375 1.34375 1.921875 1.34375 Z M 1.40625 -2.3125 C 1.609375 -2.65625 2.015625 -2.84375 2.390625 -2.84375 C 2.96875 -2.84375 3.421875 -2.234375 3.421875 -1.5 C 3.421875 -0.703125 2.90625 -0.125 2.3125 -0.125 C 1.703125 -0.125 1.421875 -0.65625 1.40625 -0.703125 Z M 1.40625 -2.3125 "/>
</g>
<g id="glyph-0-11">
<path d="M 1.390625 -2.734375 L 2.484375 -2.734375 L 2.484375 -2.984375 L 1.390625 -2.984375 L 1.390625 -4.265625 L 1.15625 -4.265625 C 1.15625 -3.640625 0.875 -2.953125 0.203125 -2.9375 L 0.203125 -2.734375 L 0.84375 -2.734375 L 0.84375 -0.875 C 0.84375 -0.09375 1.421875 0.0625 1.8125 0.0625 C 2.28125 0.0625 2.609375 -0.328125 2.609375 -0.875 L 2.609375 -1.25 L 2.359375 -1.25 L 2.359375 -0.875 C 2.359375 -0.40625 2.140625 -0.15625 1.875 -0.15625 C 1.390625 -0.15625 1.390625 -0.734375 1.390625 -0.859375 Z M 1.390625 -2.734375 "/>
</g>
<g id="glyph-0-12">
<path d="M 3.890625 -1.75 L 3.890625 -1.9375 L 0.0625 -1.9375 L 0.0625 -1.75 Z M 3.890625 -1.75 "/>
</g>
<g id="glyph-1-0">
<path d="M 4.265625 -3.359375 C 4.265625 -3.4375 4.265625 -3.484375 4.1875 -3.484375 C 4.125 -3.484375 4.109375 -3.46875 4.09375 -3.4375 L 3.796875 -3.046875 C 3.484375 -3.3125 3.109375 -3.484375 2.625 -3.484375 C 1.421875 -3.484375 0.484375 -2.671875 0.484375 -1.6875 C 0.484375 -0.71875 1.421875 0.109375 2.625 0.109375 C 3.578125 0.109375 4.265625 -0.5 4.265625 -1.15625 C 4.265625 -1.234375 4.234375 -1.265625 4.15625 -1.265625 C 4.09375 -1.265625 4.0625 -1.265625 4.046875 -1.171875 C 4.015625 -0.421875 3.296875 -0.109375 2.71875 -0.109375 C 2.015625 -0.109375 1.0625 -0.5 1.0625 -1.6875 C 1.0625 -2.875 1.984375 -3.28125 2.703125 -3.28125 C 3.15625 -3.28125 3.890625 -3.03125 4.046875 -2.109375 C 4.046875 -2.0625 4.109375 -2.0625 4.15625 -2.0625 C 4.265625 -2.0625 4.265625 -2.09375 4.265625 -2.1875 Z M 4.265625 -3.359375 "/>
</g>
<g id="glyph-1-1">
<path d="M 3.046875 -1.0625 C 3.046875 -1.671875 2.46875 -2.21875 1.6875 -2.21875 C 0.90625 -2.21875 0.328125 -1.671875 0.328125 -1.0625 C 0.328125 -0.453125 0.90625 0.046875 1.6875 0.046875 C 2.46875 0.046875 3.046875 -0.453125 3.046875 -1.0625 Z M 1.6875 -0.125 C 0.8125 -0.125 0.8125 -0.859375 0.8125 -1.109375 C 0.8125 -1.328125 0.8125 -2.0625 1.6875 -2.0625 C 2.546875 -2.0625 2.546875 -1.328125 2.546875 -1.109375 C 2.546875 -0.859375 2.546875 -0.125 1.6875 -0.125 Z M 1.6875 -0.125 "/>
</g>
<g id="glyph-1-2">
<path d="M 4.703125 -1.5 C 4.703125 -2.109375 4.234375 -2.1875 3.859375 -2.1875 C 3.375 -2.1875 3.09375 -1.953125 2.953125 -1.734375 C 2.828125 -2.1875 2.328125 -2.1875 2.140625 -2.1875 C 1.625 -2.1875 1.34375 -1.921875 1.21875 -1.703125 L 1.21875 -2.1875 L 0.40625 -2.140625 L 0.40625 -1.921875 C 0.765625 -1.921875 0.8125 -1.875 0.8125 -1.640625 L 0.8125 -0.421875 C 0.8125 -0.265625 0.8125 -0.21875 0.5 -0.21875 L 0.40625 -0.21875 L 0.40625 0 C 0.625 -0.015625 0.828125 -0.015625 1.046875 -0.015625 C 1.25 -0.015625 1.46875 -0.015625 1.671875 0 L 1.671875 -0.21875 L 1.578125 -0.21875 C 1.265625 -0.21875 1.265625 -0.265625 1.265625 -0.421875 L 1.265625 -1.28125 C 1.265625 -1.828125 1.765625 -2.03125 2.078125 -2.03125 C 2.453125 -2.03125 2.53125 -1.828125 2.53125 -1.5 L 2.53125 -0.421875 C 2.53125 -0.265625 2.53125 -0.21875 2.21875 -0.21875 L 2.125 -0.21875 L 2.125 0 C 2.34375 -0.015625 2.546875 -0.015625 2.765625 -0.015625 C 2.96875 -0.015625 3.1875 -0.015625 3.390625 0 L 3.390625 -0.21875 L 3.296875 -0.21875 C 2.984375 -0.21875 2.984375 -0.265625 2.984375 -0.421875 L 2.984375 -1.28125 C 2.984375 -1.828125 3.484375 -2.03125 3.796875 -2.03125 C 4.171875 -2.03125 4.25 -1.828125 4.25 -1.5 L 4.25 -0.421875 C 4.25 -0.265625 4.25 -0.21875 3.9375 -0.21875 L 3.84375 -0.21875 L 3.84375 0 C 4.0625 -0.015625 4.265625 -0.015625 4.484375 -0.015625 C 4.6875 -0.015625 4.90625 -0.015625 5.109375 0 L 5.109375 -0.21875 L 5.015625 -0.21875 C 4.703125 -0.21875 4.703125 -0.265625 4.703125 -0.421875 Z M 4.703125 -1.5 "/>
</g>
<g id="glyph-1-3">
<path d="M 1.640625 0.75 L 1.546875 0.75 C 1.234375 0.75 1.234375 0.703125 1.234375 0.546875 L 1.234375 -0.234375 C 1.4375 -0.046875 1.703125 0.046875 1.984375 0.046875 C 2.75 0.046875 3.359375 -0.453125 3.359375 -1.0625 C 3.359375 -1.671875 2.8125 -2.1875 2.078125 -2.1875 C 1.6875 -2.1875 1.375 -2.046875 1.203125 -1.90625 L 1.203125 -2.1875 L 0.375 -2.140625 L 0.375 -1.921875 C 0.734375 -1.921875 0.78125 -1.921875 0.78125 -1.703125 L 0.78125 0.546875 C 0.78125 0.703125 0.78125 0.75 0.46875 0.75 L 0.375 0.75 L 0.375 0.953125 C 0.59375 0.953125 0.796875 0.9375 1.015625 0.9375 C 1.21875 0.9375 1.4375 0.953125 1.640625 0.953125 Z M 1.234375 -1.640625 C 1.4375 -1.953125 1.8125 -2.015625 2.015625 -2.015625 C 2.5 -2.015625 2.859375 -1.5625 2.859375 -1.0625 C 2.859375 -0.53125 2.453125 -0.109375 1.953125 -0.109375 C 1.734375 -0.109375 1.46875 -0.203125 1.296875 -0.421875 C 1.234375 -0.515625 1.234375 -0.515625 1.234375 -0.609375 Z M 1.234375 -1.640625 "/>
</g>
<g id="glyph-1-4">
<path d="M 1.203125 -1.109375 C 1.203125 -1.5625 1.46875 -2.015625 1.9375 -2.03125 C 1.9375 -2.015625 1.875 -1.953125 1.875 -1.84375 C 1.875 -1.671875 2.015625 -1.59375 2.125 -1.59375 C 2.25 -1.59375 2.375 -1.671875 2.375 -1.84375 C 2.375 -2.03125 2.1875 -2.1875 1.9375 -2.1875 C 1.6875 -2.1875 1.359375 -2.0625 1.171875 -1.640625 L 1.171875 -2.1875 L 0.375 -2.140625 L 0.375 -1.921875 C 0.75 -1.921875 0.78125 -1.875 0.78125 -1.640625 L 0.78125 -0.421875 C 0.78125 -0.265625 0.78125 -0.21875 0.46875 -0.21875 L 0.375 -0.21875 L 0.375 0 C 0.578125 -0.015625 0.8125 -0.015625 1.015625 -0.015625 C 1.265625 -0.015625 1.515625 -0.015625 1.71875 0 L 1.71875 -0.21875 L 1.59375 -0.21875 C 1.203125 -0.21875 1.203125 -0.265625 1.203125 -0.421875 Z M 1.203125 -1.109375 "/>
</g>
<g id="glyph-1-5">
<path d="M 2.5625 -1.109375 C 2.671875 -1.109375 2.703125 -1.109375 2.703125 -1.234375 C 2.703125 -1.5625 2.53125 -2.21875 1.609375 -2.21875 C 0.859375 -2.21875 0.328125 -1.671875 0.328125 -1.09375 C 0.328125 -0.453125 0.921875 0.046875 1.671875 0.046875 C 2.46875 0.046875 2.703125 -0.5 2.703125 -0.59375 C 2.703125 -0.671875 2.625 -0.671875 2.609375 -0.671875 C 2.53125 -0.671875 2.515625 -0.65625 2.484375 -0.578125 C 2.359375 -0.25 1.984375 -0.125 1.703125 -0.125 C 1.3125 -0.125 1.078125 -0.34375 1.015625 -0.4375 C 0.8125 -0.671875 0.8125 -0.984375 0.8125 -1.109375 Z M 0.828125 -1.265625 C 0.890625 -1.921875 1.359375 -2.0625 1.59375 -2.0625 C 2.28125 -2.0625 2.328125 -1.40625 2.328125 -1.265625 Z M 0.828125 -1.265625 "/>
</g>
<g id="glyph-1-6">
<path d="M 2.21875 -2.078125 C 2.21875 -2.171875 2.21875 -2.21875 2.140625 -2.21875 C 2.109375 -2.21875 2.09375 -2.21875 2.046875 -2.1875 C 2.03125 -2.171875 1.9375 -2.078125 1.921875 -2.078125 C 1.921875 -2.078125 1.90625 -2.078125 1.875 -2.109375 C 1.765625 -2.171875 1.578125 -2.21875 1.328125 -2.21875 C 0.515625 -2.21875 0.34375 -1.84375 0.34375 -1.609375 C 0.34375 -1.15625 0.921875 -1.0625 1.375 -0.984375 C 1.671875 -0.953125 2.125 -0.875 2.125 -0.546875 C 2.125 -0.359375 1.96875 -0.109375 1.375 -0.109375 C 1.046875 -0.109375 0.71875 -0.234375 0.5625 -0.765625 C 0.546875 -0.84375 0.53125 -0.859375 0.453125 -0.859375 C 0.34375 -0.859375 0.34375 -0.828125 0.34375 -0.71875 L 0.34375 -0.078125 C 0.34375 0 0.34375 0.046875 0.421875 0.046875 C 0.46875 0.046875 0.46875 0.046875 0.5625 -0.046875 L 0.6875 -0.171875 C 0.9375 0.046875 1.25 0.046875 1.375 0.046875 C 2.203125 0.046875 2.375 -0.375 2.375 -0.625 C 2.375 -0.84375 2.25 -1.015625 2.0625 -1.125 C 1.859375 -1.25 1.703125 -1.265625 1.296875 -1.34375 C 0.96875 -1.390625 0.59375 -1.453125 0.59375 -1.703125 C 0.59375 -1.875 0.78125 -2.078125 1.328125 -2.078125 C 1.734375 -2.078125 1.96875 -1.90625 2 -1.5625 C 2.015625 -1.484375 2.015625 -1.46875 2.109375 -1.46875 C 2.21875 -1.46875 2.21875 -1.5 2.21875 -1.59375 Z M 2.21875 -2.078125 "/>
</g>
<g id="glyph-1-7">
<path d="M 4.140625 -1.34375 L 3.9375 -1.34375 C 3.796875 -0.53125 3.59375 -0.21875 2.65625 -0.21875 L 1.734375 -0.21875 C 1.484375 -0.21875 1.484375 -0.25 1.484375 -0.40625 L 1.484375 -1.640625 L 2.0625 -1.640625 C 2.5625 -1.640625 2.6875 -1.53125 2.6875 -1.0625 L 2.90625 -1.0625 L 2.90625 -2.4375 L 2.6875 -2.4375 C 2.6875 -1.953125 2.5625 -1.859375 2.0625 -1.859375 L 1.484375 -1.859375 L 1.484375 -2.953125 C 1.484375 -3.109375 1.484375 -3.140625 1.734375 -3.140625 L 2.609375 -3.140625 C 3.4375 -3.140625 3.65625 -2.953125 3.765625 -2.1875 L 3.96875 -2.1875 L 3.8125 -3.359375 L 0.40625 -3.359375 L 0.40625 -3.140625 L 0.5625 -3.140625 C 0.953125 -3.140625 0.953125 -3.09375 0.953125 -2.9375 L 0.953125 -0.421875 C 0.953125 -0.265625 0.953125 -0.21875 0.5625 -0.21875 L 0.40625 -0.21875 L 0.40625 0 L 3.890625 0 Z M 4.140625 -1.34375 "/>
</g>
<g id="glyph-1-8">
<path d="M 3.171875 -2.140625 C 3.03125 -2.125 2.890625 -2.109375 2.703125 -2.109375 C 2.53125 -2.109375 2.328125 -2.125 2.15625 -2.140625 L 2.15625 -1.921875 C 2.234375 -1.90625 2.25 -1.828125 2.25 -1.828125 C 2.25 -1.734375 2.1875 -1.6875 2.0625 -1.546875 L 1.8125 -1.3125 C 1.578125 -1.53125 1.328125 -1.78125 1.328125 -1.828125 C 1.328125 -1.90625 1.4375 -1.921875 1.453125 -1.921875 L 1.453125 -2.140625 C 1.25 -2.125 0.859375 -2.109375 0.84375 -2.109375 C 0.640625 -2.109375 0.5 -2.109375 0.28125 -2.140625 L 0.28125 -1.921875 L 0.375 -1.921875 C 0.6875 -1.921875 0.703125 -1.90625 0.96875 -1.640625 L 1.546875 -1.046875 C 1.515625 -1.015625 1.078125 -0.578125 1.015625 -0.515625 C 0.875 -0.390625 0.6875 -0.21875 0.25 -0.21875 L 0.25 0 C 0.40625 -0.015625 0.546875 -0.015625 0.734375 -0.015625 C 0.90625 -0.015625 1.109375 -0.015625 1.28125 0 L 1.28125 -0.21875 C 1.203125 -0.234375 1.1875 -0.28125 1.1875 -0.3125 C 1.1875 -0.390625 1.265625 -0.46875 1.28125 -0.484375 C 1.328125 -0.546875 1.671875 -0.859375 1.6875 -0.890625 C 1.875 -0.734375 2.078125 -0.515625 2.203125 -0.375 C 2.25 -0.328125 2.25 -0.328125 2.25 -0.3125 C 2.25 -0.21875 2.140625 -0.21875 2.125 -0.21875 L 2.125 0 C 2.328125 -0.015625 2.703125 -0.015625 2.734375 -0.015625 C 2.9375 -0.015625 3.078125 -0.015625 3.28125 0 L 3.28125 -0.21875 L 3.1875 -0.21875 C 2.921875 -0.21875 2.859375 -0.25 2.796875 -0.296875 C 2.75 -0.328125 2.171875 -0.921875 1.953125 -1.15625 C 2.5625 -1.78125 2.6875 -1.90625 3.171875 -1.921875 Z M 3.171875 -2.140625 "/>
</g>
<g id="glyph-1-9">
<path d="M 2.59375 -1.46875 C 2.59375 -1.953125 2.09375 -2.21875 1.46875 -2.21875 C 1.171875 -2.21875 0.59375 -2.203125 0.59375 -1.78125 C 0.59375 -1.59375 0.734375 -1.515625 0.859375 -1.515625 C 1 -1.515625 1.125 -1.609375 1.125 -1.78125 C 1.125 -1.890625 1.0625 -1.96875 1.015625 -2 C 1.171875 -2.0625 1.40625 -2.0625 1.46875 -2.0625 C 1.890625 -2.0625 2.15625 -1.828125 2.15625 -1.46875 L 2.15625 -1.34375 C 1.671875 -1.3125 1.40625 -1.296875 1.015625 -1.15625 C 0.6875 -1.046875 0.40625 -0.84375 0.40625 -0.515625 C 0.40625 -0.046875 0.984375 0.046875 1.375 0.046875 C 1.765625 0.046875 2.0625 -0.09375 2.203125 -0.359375 C 2.234375 -0.171875 2.34375 0.03125 2.59375 0.03125 C 2.625 0.03125 3.1875 0.03125 3.1875 -0.453125 L 3.1875 -0.71875 L 2.984375 -0.71875 L 2.984375 -0.453125 C 2.984375 -0.40625 2.984375 -0.1875 2.78125 -0.1875 C 2.59375 -0.1875 2.59375 -0.40625 2.59375 -0.453125 Z M 2.15625 -0.703125 C 2.15625 -0.15625 1.5625 -0.109375 1.4375 -0.109375 C 1.140625 -0.109375 0.859375 -0.265625 0.859375 -0.515625 C 0.859375 -0.6875 0.96875 -1.140625 2.15625 -1.1875 Z M 2.15625 -0.703125 "/>
</g>
<g id="glyph-1-10">
<path d="M 2.96875 -1.5 C 2.96875 -2.046875 2.59375 -2.1875 2.140625 -2.1875 C 1.609375 -2.1875 1.328125 -1.890625 1.21875 -1.703125 L 1.21875 -2.1875 L 0.40625 -2.140625 L 0.40625 -1.921875 C 0.765625 -1.921875 0.8125 -1.875 0.8125 -1.640625 L 0.8125 -0.421875 C 0.8125 -0.265625 0.8125 -0.21875 0.5 -0.21875 L 0.40625 -0.21875 L 0.40625 0 C 0.625 -0.015625 0.828125 -0.015625 1.046875 -0.015625 C 1.25 -0.015625 1.46875 -0.015625 1.671875 0 L 1.671875 -0.21875 L 1.578125 -0.21875 C 1.265625 -0.21875 1.265625 -0.265625 1.265625 -0.421875 L 1.265625 -1.28125 C 1.265625 -1.84375 1.765625 -2.03125 2.078125 -2.03125 C 2.453125 -2.03125 2.53125 -1.8125 2.53125 -1.5 L 2.53125 -0.421875 C 2.53125 -0.265625 2.53125 -0.21875 2.203125 -0.21875 L 2.125 -0.21875 L 2.125 0 C 2.328125 -0.015625 2.546875 -0.015625 2.75 -0.015625 C 2.96875 -0.015625 3.171875 -0.015625 3.390625 0 L 3.390625 -0.21875 L 3.296875 -0.21875 C 2.96875 -0.21875 2.96875 -0.265625 2.96875 -0.421875 Z M 2.96875 -1.5 "/>
</g>
<g id="glyph-1-11">
<path d="M 1.25 -3.046875 C 1.25 -3.21875 1.125 -3.359375 0.953125 -3.359375 C 0.796875 -3.359375 0.65625 -3.234375 0.65625 -3.046875 C 0.65625 -2.875 0.796875 -2.75 0.953125 -2.75 C 1.125 -2.75 1.25 -2.890625 1.25 -3.046875 Z M 0.4375 -2.140625 L 0.4375 -1.921875 C 0.78125 -1.921875 0.828125 -1.875 0.828125 -1.640625 L 0.828125 -0.421875 C 0.828125 -0.265625 0.828125 -0.21875 0.5 -0.21875 L 0.40625 -0.21875 L 0.40625 0 C 0.609375 -0.015625 0.828125 -0.015625 1.03125 -0.015625 C 1.21875 -0.015625 1.4375 -0.015625 1.609375 0 L 1.609375 -0.21875 C 1.28125 -0.21875 1.25 -0.21875 1.25 -0.421875 L 1.25 -2.1875 Z M 0.4375 -2.140625 "/>
</g>
<g id="glyph-1-12">
<path d="M 2.734375 -1.625 C 2.828125 -1.78125 2.953125 -1.90625 3.265625 -1.921875 L 3.265625 -2.140625 C 3.125 -2.125 3 -2.109375 2.828125 -2.109375 C 2.828125 -2.109375 2.5 -2.125 2.328125 -2.140625 L 2.328125 -1.921875 C 2.453125 -1.90625 2.546875 -1.859375 2.546875 -1.734375 C 2.546875 -1.6875 2.515625 -1.640625 2.515625 -1.640625 L 1.890625 -0.40625 L 1.203125 -1.734375 C 1.203125 -1.75 1.1875 -1.78125 1.1875 -1.8125 C 1.1875 -1.921875 1.359375 -1.921875 1.453125 -1.921875 L 1.453125 -2.140625 C 1.21875 -2.125 0.859375 -2.109375 0.828125 -2.109375 C 0.640625 -2.109375 0.484375 -2.109375 0.28125 -2.140625 L 0.28125 -1.921875 C 0.578125 -1.921875 0.640625 -1.921875 0.71875 -1.765625 L 1.59375 -0.0625 C 1.625 0.015625 1.65625 0.046875 1.765625 0.046875 C 1.875 0.046875 1.90625 0 1.9375 -0.0625 Z M 2.734375 -1.625 "/>
</g>
<g id="glyph-1-13">
<path d="M 1.25 -3.4375 L 0.40625 -3.390625 L 0.40625 -3.171875 C 0.78125 -3.171875 0.828125 -3.125 0.828125 -2.890625 L 0.828125 -0.421875 C 0.828125 -0.265625 0.828125 -0.21875 0.5 -0.21875 L 0.40625 -0.21875 L 0.40625 0 C 0.625 -0.015625 0.828125 -0.015625 1.03125 -0.015625 C 1.234375 -0.015625 1.453125 -0.015625 1.65625 0 L 1.65625 -0.21875 L 1.5625 -0.21875 C 1.25 -0.21875 1.25 -0.265625 1.25 -0.421875 Z M 1.25 -3.4375 "/>
</g>
<g id="glyph-1-14">
<path d="M 2.21875 -2 C 2.15625 -1.953125 2.109375 -1.875 2.109375 -1.78125 C 2.109375 -1.609375 2.234375 -1.515625 2.375 -1.515625 C 2.5 -1.515625 2.640625 -1.59375 2.640625 -1.78125 C 2.640625 -2.203125 2.09375 -2.21875 1.75 -2.21875 C 0.765625 -2.21875 0.359375 -1.5625 0.359375 -1.0625 C 0.359375 -0.453125 0.9375 0.046875 1.6875 0.046875 C 2.546875 0.046875 2.703125 -0.546875 2.703125 -0.59375 C 2.703125 -0.65625 2.640625 -0.65625 2.609375 -0.65625 C 2.53125 -0.65625 2.515625 -0.65625 2.5 -0.59375 C 2.328125 -0.171875 1.96875 -0.125 1.75 -0.125 C 1.328125 -0.125 0.859375 -0.40625 0.859375 -1.078125 C 0.859375 -1.296875 0.890625 -1.5625 1.078125 -1.765625 C 1.3125 -2.046875 1.609375 -2.046875 1.765625 -2.046875 C 1.90625 -2.046875 2.046875 -2.046875 2.21875 -2 Z M 2.21875 -2 "/>
</g>
<g id="glyph-2-0">
<path d="M 2.765625 -4.3125 C 2.765625 -4.546875 2.71875 -4.546875 2.421875 -4.546875 C 2 -4.203125 1.421875 -4.109375 0.875 -4.109375 L 0.703125 -4.109375 L 0.703125 -3.71875 L 0.875 -3.71875 C 1.15625 -3.71875 1.578125 -3.765625 1.859375 -3.859375 L 1.859375 -0.390625 L 0.765625 -0.390625 L 0.765625 0 C 1.109375 -0.03125 1.9375 -0.03125 2.3125 -0.03125 C 2.5625 -0.03125 2.8125 -0.015625 3.0625 -0.015625 C 3.28125 -0.015625 3.640625 -0.015625 3.84375 0 L 3.84375 -0.390625 L 2.765625 -0.390625 Z M 2.765625 -4.3125 "/>
</g>
<g id="glyph-2-1">
<path d="M 4.015625 -1.578125 L 3.578125 -1.578125 C 3.5625 -1.5 3.5 -1 3.375 -0.984375 C 3.21875 -0.953125 2.8125 -0.953125 2.65625 -0.953125 L 1.703125 -0.953125 C 2.078125 -1.234375 2.46875 -1.515625 2.875 -1.78125 C 3.4375 -2.140625 4.015625 -2.5 4.015625 -3.203125 C 4.015625 -4.03125 3.21875 -4.546875 2.125 -4.546875 C 1.171875 -4.546875 0.46875 -4.1875 0.46875 -3.53125 C 0.46875 -3.125 0.796875 -2.96875 1 -2.96875 C 1.25 -2.96875 1.546875 -3.15625 1.546875 -3.515625 C 1.546875 -3.84375 1.296875 -3.984375 1.265625 -4 C 1.515625 -4.15625 1.84375 -4.15625 1.921875 -4.15625 C 2.515625 -4.15625 2.96875 -3.78125 2.96875 -3.1875 C 2.96875 -2.65625 2.609375 -2.21875 2.21875 -1.859375 L 0.5625 -0.390625 C 0.484375 -0.3125 0.46875 -0.3125 0.46875 -0.171875 L 0.46875 0 L 3.78125 0 Z M 4.015625 -1.578125 "/>
</g>
<g id="glyph-2-2">
<path d="M 2.09375 -2.25 C 2.921875 -2.25 2.953125 -1.625 2.953125 -1.265625 C 2.953125 -0.96875 2.953125 -0.265625 2.125 -0.265625 C 1.9375 -0.265625 1.5 -0.3125 1.203125 -0.5 C 1.34375 -0.5625 1.53125 -0.71875 1.53125 -1.015625 C 1.53125 -1.328125 1.296875 -1.578125 0.96875 -1.578125 C 0.625 -1.578125 0.390625 -1.328125 0.390625 -1 C 0.390625 -0.296875 1.171875 0.078125 2.15625 0.078125 C 3.59375 0.078125 4.09375 -0.671875 4.09375 -1.25 C 4.09375 -1.796875 3.65625 -2.28125 2.875 -2.4375 C 3.375 -2.625 3.84375 -2.984375 3.84375 -3.5625 C 3.84375 -4.109375 3.28125 -4.546875 2.171875 -4.546875 C 1.234375 -4.546875 0.640625 -4.09375 0.640625 -3.515625 C 0.640625 -3.15625 0.890625 -2.96875 1.171875 -2.96875 C 1.515625 -2.96875 1.6875 -3.234375 1.6875 -3.5 C 1.6875 -3.84375 1.421875 -3.96875 1.34375 -4 C 1.625 -4.203125 2 -4.234375 2.140625 -4.234375 C 2.8125 -4.234375 2.8125 -3.78125 2.8125 -3.59375 C 2.8125 -3.265625 2.671875 -2.625 1.984375 -2.59375 C 1.8125 -2.59375 1.640625 -2.578125 1.59375 -2.5625 C 1.5 -2.546875 1.5 -2.453125 1.5 -2.421875 C 1.5 -2.25 1.59375 -2.25 1.734375 -2.25 Z M 2.09375 -2.25 "/>
</g>
<g id="glyph-2-3">
<path d="M 4.203125 -1.0625 L 4.203125 -1.453125 L 3.453125 -1.453125 L 3.453125 -4.34375 C 3.453125 -4.5625 3.40625 -4.59375 3.203125 -4.59375 L 3.09375 -4.59375 C 2.96875 -4.59375 2.90625 -4.59375 2.828125 -4.484375 L 0.28125 -1.453125 L 0.28125 -1.0625 L 2.5 -1.0625 L 2.5 -0.390625 L 1.640625 -0.390625 L 1.640625 0 C 1.984375 -0.03125 2.609375 -0.03125 2.96875 -0.03125 C 3.109375 -0.03125 4.03125 -0.015625 4.203125 0 L 4.203125 -0.390625 L 3.453125 -0.390625 L 3.453125 -1.0625 Z M 2.59375 -3.640625 L 2.59375 -1.453125 L 0.75 -1.453125 Z M 2.59375 -3.640625 "/>
</g>
<g id="glyph-2-4">
<path d="M 4.25 -2.09375 C 4.25 -2.9375 3.703125 -3.125 3.0625 -3.125 C 2.296875 -3.125 1.90625 -2.703125 1.734375 -2.46875 L 1.734375 -4.8125 L 0.4375 -4.765625 L 0.4375 -4.375 C 0.859375 -4.375 0.90625 -4.375 0.90625 -4.09375 L 0.90625 -0.390625 L 0.4375 -0.390625 L 0.4375 0 C 0.453125 0 1.015625 -0.03125 1.34375 -0.03125 C 1.6875 -0.03125 2.25 0 2.25 0 L 2.25 -0.390625 L 1.796875 -0.390625 L 1.796875 -1.734375 C 1.796875 -2.53125 2.515625 -2.796875 2.921875 -2.796875 C 3.234375 -2.796875 3.359375 -2.640625 3.359375 -2.140625 L 3.359375 -0.390625 L 2.90625 -0.390625 L 2.90625 0 C 2.90625 0 3.46875 -0.03125 3.796875 -0.03125 C 4.140625 -0.03125 4.703125 0 4.703125 0 L 4.703125 -0.390625 L 4.25 -0.390625 Z M 4.25 -2.09375 "/>
</g>
<g id="glyph-2-5">
<path d="M 3.578125 -1.4375 C 3.71875 -1.4375 3.828125 -1.4375 3.828125 -1.65625 C 3.828125 -1.859375 3.78125 -2.375 3.4375 -2.71875 C 3.0625 -3.09375 2.546875 -3.140625 2.171875 -3.140625 C 0.890625 -3.140625 0.28125 -2.375 0.28125 -1.5625 C 0.28125 -0.734375 0.921875 0.046875 2.296875 0.046875 C 2.546875 0.046875 2.9375 0.015625 3.28125 -0.171875 C 3.703125 -0.390625 3.828125 -0.71875 3.828125 -0.796875 C 3.828125 -0.9375 3.671875 -0.9375 3.59375 -0.9375 C 3.46875 -0.9375 3.4375 -0.9375 3.390625 -0.828125 C 3.140625 -0.3125 2.5 -0.3125 2.390625 -0.3125 C 1.296875 -0.3125 1.25 -1.125 1.234375 -1.4375 Z M 1.234375 -1.734375 C 1.25 -2 1.28125 -2.828125 2.171875 -2.828125 C 3.078125 -2.828125 3.125 -2.03125 3.140625 -1.734375 Z M 1.234375 -1.734375 "/>
</g>
<g id="glyph-2-6">
<path d="M 3.65625 -2.046875 C 3.65625 -2.609375 3.203125 -3.140625 1.953125 -3.140625 C 1.546875 -3.140625 0.578125 -3.140625 0.578125 -2.453125 C 0.578125 -2.15625 0.8125 -1.96875 1.0625 -1.96875 C 1.359375 -1.96875 1.546875 -2.1875 1.546875 -2.453125 C 1.546875 -2.609375 1.484375 -2.703125 1.46875 -2.71875 C 1.453125 -2.75 1.4375 -2.765625 1.4375 -2.78125 C 1.4375 -2.8125 1.890625 -2.828125 1.9375 -2.828125 C 2.421875 -2.828125 2.78125 -2.625 2.78125 -2.046875 L 2.78125 -1.859375 C 2.4375 -1.859375 0.28125 -1.828125 0.28125 -0.796875 C 0.28125 -0.15625 1.046875 0.046875 1.734375 0.046875 C 2.484375 0.046875 2.796875 -0.296875 2.921875 -0.46875 C 2.921875 -0.171875 3.109375 0 3.671875 0 L 4.09375 0 C 4.21875 0 4.328125 0 4.328125 -0.1875 C 4.328125 -0.390625 4.21875 -0.390625 4.078125 -0.390625 C 3.65625 -0.390625 3.65625 -0.4375 3.65625 -0.609375 Z M 2.78125 -0.953125 C 2.78125 -0.8125 2.78125 -0.609375 2.515625 -0.4375 C 2.25 -0.28125 1.921875 -0.28125 1.875 -0.28125 C 1.484375 -0.28125 1.15625 -0.5 1.15625 -0.8125 C 1.15625 -1.375 2.09375 -1.5625 2.78125 -1.578125 Z M 2.78125 -0.953125 "/>
</g>
<g id="glyph-2-7">
<path d="M 1.703125 -2.6875 L 2.828125 -2.6875 L 2.828125 -3.078125 L 1.703125 -3.078125 L 1.703125 -4.40625 L 1.265625 -4.40625 C 1.25 -3.765625 0.921875 -3.03125 0.1875 -3.015625 L 0.1875 -2.6875 L 0.8125 -2.6875 L 0.8125 -0.84375 C 0.8125 -0.15625 1.375 0.046875 1.984375 0.046875 C 2.53125 0.046875 2.96875 -0.28125 2.96875 -0.84375 L 2.96875 -1.203125 L 2.546875 -1.203125 L 2.546875 -0.875 C 2.546875 -0.390625 2.25 -0.3125 2.109375 -0.3125 C 1.703125 -0.3125 1.703125 -0.65625 1.703125 -0.84375 Z M 1.703125 -2.6875 "/>
</g>
<g id="glyph-2-8">
<path d="M 2.1875 0.953125 L 1.734375 0.953125 L 1.734375 -0.25 C 1.90625 -0.140625 2.234375 0.046875 2.71875 0.046875 C 3.921875 0.046875 4.640625 -0.625 4.640625 -1.546875 C 4.640625 -2.390625 4.046875 -3.125 2.859375 -3.125 C 2.5 -3.125 2.078125 -3.046875 1.671875 -2.796875 L 1.671875 -3.125 L 0.375 -3.0625 L 0.375 -2.671875 C 0.5 -2.671875 0.640625 -2.671875 0.734375 -2.65625 C 0.84375 -2.640625 0.84375 -2.5625 0.84375 -2.4375 L 0.84375 0.953125 L 0.375 0.953125 L 0.375 1.34375 C 0.390625 1.34375 0.953125 1.3125 1.28125 1.3125 C 1.625 1.3125 2.1875 1.34375 2.1875 1.34375 Z M 1.734375 -2.21875 C 1.734375 -2.359375 1.734375 -2.359375 1.828125 -2.453125 C 2.171875 -2.734375 2.578125 -2.765625 2.71875 -2.765625 C 3.3125 -2.765625 3.6875 -2.296875 3.6875 -1.546875 C 3.6875 -0.640625 3.15625 -0.28125 2.640625 -0.28125 C 2.109375 -0.28125 1.8125 -0.65625 1.734375 -0.765625 Z M 1.734375 -2.21875 "/>
</g>
<g id="glyph-2-9">
<path d="M 2.90625 -3.0625 L 2.90625 -2.671875 C 3.3125 -2.671875 3.359375 -2.671875 3.359375 -2.40625 L 3.359375 -1.125 C 3.359375 -0.546875 2.921875 -0.28125 2.390625 -0.28125 C 1.796875 -0.28125 1.796875 -0.4375 1.796875 -0.765625 L 1.796875 -3.125 L 0.4375 -3.0625 L 0.4375 -2.671875 C 0.859375 -2.671875 0.90625 -2.671875 0.90625 -2.40625 L 0.90625 -0.84375 C 0.90625 -0.03125 1.671875 0.046875 2.28125 0.046875 C 2.5 0.046875 3.015625 0.046875 3.40625 -0.453125 L 3.40625 0.046875 L 4.703125 0 L 4.703125 -0.390625 C 4.296875 -0.390625 4.25 -0.390625 4.25 -0.65625 L 4.25 -3.125 Z M 2.90625 -3.0625 "/>
</g>
<g id="glyph-2-10">
<path d="M 6.71875 -2.09375 C 6.71875 -2.953125 6.140625 -3.125 5.53125 -3.125 C 4.859375 -3.125 4.4375 -2.8125 4.21875 -2.46875 C 4.03125 -3.078125 3.4375 -3.125 3.0625 -3.125 C 2.234375 -3.125 1.84375 -2.640625 1.703125 -2.40625 L 1.703125 -3.125 L 0.4375 -3.0625 L 0.4375 -2.671875 C 0.859375 -2.671875 0.90625 -2.671875 0.90625 -2.40625 L 0.90625 -0.390625 L 0.4375 -0.390625 L 0.4375 0 C 0.453125 0 1.015625 -0.03125 1.34375 -0.03125 C 1.6875 -0.03125 2.25 0 2.25 0 L 2.25 -0.390625 L 1.796875 -0.390625 L 1.796875 -1.734375 C 1.796875 -2.546875 2.53125 -2.796875 2.921875 -2.796875 C 3.234375 -2.796875 3.375 -2.65625 3.375 -2.140625 L 3.375 -0.390625 L 2.90625 -0.390625 L 2.90625 0 C 2.90625 0 3.46875 -0.03125 3.8125 -0.03125 C 4.15625 -0.03125 4.703125 0 4.71875 0 L 4.71875 -0.390625 L 4.25 -0.390625 L 4.25 -1.734375 C 4.25 -2.546875 5 -2.796875 5.390625 -2.796875 C 5.703125 -2.796875 5.828125 -2.65625 5.828125 -2.140625 L 5.828125 -0.390625 L 5.375 -0.390625 L 5.375 0 C 5.375 0 5.9375 -0.03125 6.265625 -0.03125 C 6.609375 -0.03125 7.171875 0 7.1875 0 L 7.1875 -0.390625 L 6.71875 -0.390625 Z M 6.71875 -2.09375 "/>
</g>
<g id="glyph-2-11">
<path d="M 1.671875 -1.453125 C 1.671875 -2.078125 1.96875 -2.765625 2.59375 -2.796875 C 2.578125 -2.796875 2.484375 -2.671875 2.484375 -2.5 C 2.484375 -2.234375 2.6875 -2.03125 2.96875 -2.03125 C 3.234375 -2.03125 3.4375 -2.234375 3.4375 -2.5 C 3.4375 -2.890625 3.046875 -3.125 2.609375 -3.125 C 2.109375 -3.125 1.78125 -2.78125 1.59375 -2.359375 L 1.59375 -3.125 L 0.375 -3.0625 L 0.375 -2.671875 C 0.796875 -2.671875 0.84375 -2.671875 0.84375 -2.40625 L 0.84375 -0.390625 L 0.375 -0.390625 L 0.375 0 C 0.40625 0 0.9375 -0.03125 1.265625 -0.03125 C 1.546875 -0.03125 2.21875 0 2.265625 0 L 2.265625 -0.390625 L 1.671875 -0.390625 Z M 1.671875 -1.453125 "/>
</g>
<g id="glyph-2-12">
<path d="M 1.765625 -2.6875 L 2.65625 -2.6875 L 2.65625 -3.078125 L 1.71875 -3.078125 L 1.71875 -3.734375 C 1.71875 -3.84375 1.71875 -4.53125 2.484375 -4.53125 C 2.5625 -4.53125 2.5625 -4.53125 2.5625 -4.515625 C 2.5625 -4.515625 2.546875 -4.5 2.546875 -4.484375 C 2.515625 -4.453125 2.453125 -4.34375 2.453125 -4.203125 C 2.453125 -3.875 2.71875 -3.71875 2.921875 -3.71875 C 3.15625 -3.71875 3.40625 -3.890625 3.40625 -4.203125 C 3.40625 -4.515625 3.125 -4.859375 2.53125 -4.859375 C 1.734375 -4.859375 0.9375 -4.53125 0.9375 -3.75 L 0.9375 -3.078125 L 0.359375 -3.078125 L 0.359375 -2.6875 L 0.9375 -2.6875 L 0.9375 -0.390625 L 0.46875 -0.390625 L 0.46875 0 C 0.5 0 1.03125 -0.03125 1.359375 -0.03125 C 1.625 -0.03125 2.296875 0 2.359375 0 L 2.359375 -0.390625 L 1.765625 -0.390625 Z M 1.765625 -2.6875 "/>
</g>
<g id="glyph-2-13">
<path d="M 1.8125 -4.25 C 1.8125 -4.578125 1.546875 -4.828125 1.25 -4.828125 C 0.921875 -4.828125 0.6875 -4.546875 0.6875 -4.265625 C 0.6875 -3.921875 0.953125 -3.6875 1.25 -3.6875 C 1.578125 -3.6875 1.8125 -3.96875 1.8125 -4.25 Z M 0.484375 -3.0625 L 0.484375 -2.671875 C 0.875 -2.671875 0.921875 -2.671875 0.921875 -2.40625 L 0.921875 -0.390625 L 0.46875 -0.390625 L 0.46875 0 C 0.484375 0 1.03125 -0.03125 1.34375 -0.03125 C 1.625 -0.03125 1.90625 -0.015625 2.1875 0 L 2.1875 -0.390625 L 1.765625 -0.390625 L 1.765625 -3.125 Z M 0.484375 -3.0625 "/>
</g>
<g id="glyph-2-14">
<path d="M 1.65625 -0.625 C 1.40625 -0.625 1.3125 -0.625 1.1875 -0.71875 C 1.125 -0.765625 1.03125 -0.875 1.03125 -1.046875 C 1.03125 -1.078125 1.03125 -1.15625 1.078125 -1.21875 C 1.4375 -1.046875 1.84375 -1.046875 1.984375 -1.046875 C 3.15625 -1.046875 3.515625 -1.65625 3.515625 -2.078125 C 3.515625 -2.4375 3.296875 -2.671875 3.234375 -2.71875 C 3.34375 -2.765625 3.5 -2.8125 3.65625 -2.828125 C 3.640625 -2.796875 3.625 -2.734375 3.625 -2.703125 C 3.625 -2.453125 3.84375 -2.34375 3.96875 -2.34375 C 4.140625 -2.34375 4.328125 -2.46875 4.328125 -2.703125 C 4.328125 -2.90625 4.15625 -3.15625 3.8125 -3.15625 C 3.53125 -3.15625 3.21875 -3.046875 3 -2.90625 C 2.59375 -3.125 2.15625 -3.125 1.984375 -3.125 C 0.859375 -3.125 0.484375 -2.53125 0.484375 -2.09375 C 0.484375 -1.6875 0.71875 -1.46875 0.84375 -1.359375 C 0.6875 -1.171875 0.625 -0.96875 0.625 -0.75 C 0.625 -0.5 0.71875 -0.265625 0.90625 -0.09375 C 0.65625 -0.03125 0.28125 0.140625 0.28125 0.5 C 0.28125 0.921875 0.765625 1.390625 2.234375 1.390625 C 3.515625 1.390625 4.203125 1.03125 4.203125 0.484375 C 4.203125 0.34375 4.1875 -0.15625 3.609375 -0.4375 C 3.1875 -0.625 2.734375 -0.625 2.03125 -0.625 Z M 1.984375 -1.359375 C 1.296875 -1.359375 1.296875 -1.8125 1.296875 -2.078125 C 1.296875 -2.359375 1.296875 -2.796875 1.984375 -2.796875 C 2.6875 -2.796875 2.6875 -2.359375 2.6875 -2.09375 C 2.6875 -1.796875 2.6875 -1.359375 1.984375 -1.359375 Z M 2.453125 0.125 C 2.625 0.125 3.53125 0.125 3.53125 0.5 C 3.53125 0.734375 3.234375 1.078125 2.234375 1.078125 C 1.296875 1.078125 0.953125 0.75 0.953125 0.5 C 0.953125 0.125 1.4375 0.125 1.53125 0.125 Z M 2.453125 0.125 "/>
</g>
<g id="glyph-2-15">
<path d="M 4.203125 -1.515625 C 4.203125 -2.34375 3.59375 -3.140625 2.234375 -3.140625 C 0.875 -3.140625 0.28125 -2.328125 0.28125 -1.515625 C 0.28125 -0.703125 0.890625 0.046875 2.234375 0.046875 C 3.59375 0.046875 4.203125 -0.703125 4.203125 -1.515625 Z M 2.234375 -0.3125 C 1.234375 -0.3125 1.234375 -1 1.234375 -1.59375 C 1.234375 -2.15625 1.234375 -2.828125 2.234375 -2.828125 C 3.234375 -2.828125 3.234375 -2.15625 3.234375 -1.59375 C 3.234375 -1 3.234375 -0.3125 2.234375 -0.3125 Z M 2.234375 -0.3125 "/>
</g>
<g id="glyph-2-16">
<path d="M 4.25 -2.09375 C 4.25 -2.9375 3.703125 -3.125 3.0625 -3.125 C 2.21875 -3.125 1.828125 -2.625 1.703125 -2.40625 L 1.703125 -3.125 L 0.4375 -3.0625 L 0.4375 -2.671875 C 0.859375 -2.671875 0.90625 -2.671875 0.90625 -2.40625 L 0.90625 -0.390625 L 0.4375 -0.390625 L 0.4375 0 C 0.453125 0 1.015625 -0.03125 1.34375 -0.03125 C 1.6875 -0.03125 2.25 0 2.25 0 L 2.25 -0.390625 L 1.796875 -0.390625 L 1.796875 -1.734375 C 1.796875 -2.53125 2.515625 -2.796875 2.921875 -2.796875 C 3.234375 -2.796875 3.359375 -2.640625 3.359375 -2.140625 L 3.359375 -0.390625 L 2.90625 -0.390625 L 2.90625 0 C 2.90625 0 3.46875 -0.03125 3.796875 -0.03125 C 4.140625 -0.03125 4.703125 0 4.703125 0 L 4.703125 -0.390625 L 4.25 -0.390625 Z M 4.25 -2.09375 "/>
</g>
<g id="glyph-3-0">
<path d="M 3.21875 0.421875 C 3.21875 0.875 3.3125 1.34375 3.890625 1.34375 C 4.71875 1.34375 5.125 0.15625 5.125 0 C 5.125 -0.046875 5.078125 -0.09375 5.03125 -0.09375 C 4.953125 -0.09375 4.9375 -0.03125 4.9375 0 C 4.765625 0.484375 4.3125 0.625 4.078125 0.625 C 3.796875 0.625 3.65625 0.5 3.53125 -0.0625 C 4.765625 -0.5 5.75 -1.71875 5.75 -2.953125 C 5.75 -4.03125 4.96875 -4.875 3.734375 -4.875 C 2.078125 -4.875 0.484375 -3.328125 0.484375 -1.765625 C 0.484375 -0.640625 1.296875 0.140625 2.5 0.140625 C 2.625 0.140625 2.859375 0.125 3.21875 0.046875 Z M 2.03125 -0.171875 C 1.671875 -0.296875 1.15625 -0.65625 1.15625 -1.59375 C 1.15625 -2.03125 1.296875 -2.953125 1.921875 -3.734375 C 2.359375 -4.28125 3.03125 -4.65625 3.6875 -4.65625 C 4.4375 -4.65625 5.078125 -4.15625 5.078125 -3.140625 C 5.078125 -2.4375 4.734375 -0.953125 3.46875 -0.3125 C 3.359375 -0.75 3.171875 -1.046875 2.765625 -1.046875 C 2.375 -1.046875 2 -0.71875 2 -0.359375 C 2 -0.234375 2 -0.21875 2.03125 -0.171875 Z M 3.21875 -0.203125 C 3.078125 -0.15625 2.8125 -0.078125 2.546875 -0.078125 C 2.4375 -0.078125 2.1875 -0.078125 2.1875 -0.359375 C 2.1875 -0.625 2.484375 -0.859375 2.765625 -0.859375 C 3.015625 -0.859375 3.203125 -0.75 3.21875 -0.203125 Z M 3.21875 -0.203125 "/>
</g>
<g id="glyph-3-1">
<path d="M 2.359375 -2.15625 L 3.625 -2.15625 C 4.796875 -2.15625 5.78125 -2.90625 5.78125 -3.65625 C 5.78125 -4.234375 5.21875 -4.734375 4.265625 -4.734375 L 1.84375 -4.734375 C 1.703125 -4.734375 1.609375 -4.734375 1.609375 -4.578125 C 1.609375 -4.484375 1.6875 -4.484375 1.84375 -4.484375 C 1.953125 -4.484375 1.984375 -4.484375 2.109375 -4.46875 C 2.25 -4.453125 2.265625 -4.453125 2.265625 -4.375 C 2.265625 -4.359375 2.265625 -4.328125 2.234375 -4.21875 L 1.3125 -0.5625 C 1.25 -0.296875 1.234375 -0.25 0.703125 -0.25 C 0.578125 -0.25 0.5 -0.25 0.5 -0.09375 C 0.5 -0.09375 0.5 0 0.609375 0 C 0.8125 0 1.296875 -0.03125 1.5 -0.03125 C 1.625 -0.03125 1.859375 -0.03125 1.984375 -0.015625 C 2.125 -0.015625 2.296875 0 2.421875 0 C 2.46875 0 2.578125 0 2.578125 -0.15625 C 2.578125 -0.25 2.484375 -0.25 2.359375 -0.25 C 2.34375 -0.25 2.21875 -0.25 2.09375 -0.265625 C 1.921875 -0.28125 1.921875 -0.296875 1.921875 -0.375 C 1.921875 -0.375 1.921875 -0.421875 1.953125 -0.515625 Z M 2.859375 -4.25 C 2.921875 -4.46875 2.921875 -4.484375 3.21875 -4.484375 L 4.03125 -4.484375 C 4.671875 -4.484375 5.078125 -4.296875 5.078125 -3.796875 C 5.078125 -3.59375 5 -3.03125 4.640625 -2.71875 C 4.390625 -2.5 4 -2.375 3.5 -2.375 L 2.390625 -2.375 Z M 2.859375 -4.25 "/>
</g>
</g>
</defs>
<path fill-rule="nonzero" fill="rgb(95.292664%, 80.39093%, 73.33374%)" fill-opacity="1" stroke-width="0.69739" stroke-linecap="butt" stroke-linejoin="miter" stroke="rgb(79.998779%, 2.74353%, 11.764526%)" stroke-opacity="1" stroke-miterlimit="10" d="M 27.772958 35.431841 L -27.773397 35.431841 C -28.873092 35.431841 -29.76463 34.540303 -29.76463 33.440608 L -29.76463 23.252724 C -29.76463 22.15303 -28.873092 21.261492 -27.773397 21.261492 L 27.772958 21.261492 C 28.872652 21.261492 29.76419 22.15303 29.76419 23.252724 L 29.76419 33.440608 C 29.76419 34.540303 28.872652 35.431841 27.772958 35.431841 Z M 27.772958 35.431841 " transform="matrix(0.994594, 0, 0, -0.994594, 99.416234, 70.728592)"/>
<g fill="rgb(0%, 0%, 0%)" fill-opacity="1">
<use xlink:href="#glyph-0-0" x="81.408108" y="44.943732"/>
<use xlink:href="#glyph-0-1" x="87.064499" y="44.943732"/>
<use xlink:href="#glyph-0-2" x="91.01461" y="44.943732"/>
<use xlink:href="#glyph-0-3" x="95.39129" y="44.943732"/>
<use xlink:href="#glyph-0-4" x="99.767971" y="44.943732"/>
<use xlink:href="#glyph-0-2" x="103.290818" y="44.943732"/>
<use xlink:href="#glyph-0-5" x="107.667498" y="44.943732"/>
<use xlink:href="#glyph-0-4" x="110.806778" y="44.943732"/>
<use xlink:href="#glyph-0-6" x="114.329625" y="44.943732"/>
</g>
<path fill-rule="nonzero" fill="rgb(78.039551%, 86.66687%, 94.900513%)" fill-opacity="1" stroke-width="0.69739" stroke-linecap="butt" stroke-linejoin="miter" stroke="rgb(0%, 32.939148%, 62.353516%)" stroke-opacity="1" stroke-miterlimit="10" d="M 27.772958 -21.261338 L -27.773397 -21.261338 C -28.873092 -21.261338 -29.76463 -22.152876 -29.76463 -23.252571 L -29.76463 -33.440455 C -29.76463 -34.540149 -28.873092 -35.431687 -27.773397 -35.431687 L 27.772958 -35.431687 C 28.872652 -35.431687 29.76419 -34.540149 29.76419 -33.440455 L 29.76419 -23.252571 C 29.76419 -22.152876 28.872652 -21.261338 27.772958 -21.261338 Z M 27.772958 -21.261338 " transform="matrix(0.994594, 0, 0, -0.994594, 99.416234, 70.728592)"/>
<g fill="rgb(0%, 0%, 0%)" fill-opacity="1">
<use xlink:href="#glyph-0-7" x="80.045514" y="100.617148"/>
<use xlink:href="#glyph-0-8" x="85.371747" y="100.617148"/>
</g>
<g fill="rgb(0%, 0%, 0%)" fill-opacity="1">
<use xlink:href="#glyph-0-9" x="89.111693" y="100.617148"/>
</g>
<g fill="rgb(0%, 0%, 0%)" fill-opacity="1">
<use xlink:href="#glyph-0-10" x="93.054867" y="100.617148"/>
</g>
<g fill="rgb(0%, 0%, 0%)" fill-opacity="1">
<use xlink:href="#glyph-0-1" x="97.646567" y="100.617148"/>
<use xlink:href="#glyph-0-6" x="101.596678" y="100.617148"/>
<use xlink:href="#glyph-0-9" x="104.692954" y="100.617148"/>
<use xlink:href="#glyph-0-11" x="108.643064" y="100.617148"/>
<use xlink:href="#glyph-0-1" x="111.73934" y="100.617148"/>
<use xlink:href="#glyph-0-6" x="115.68945" y="100.617148"/>
</g>
<path fill-rule="nonzero" fill="rgb(92.547607%, 92.939758%, 92.939758%)" fill-opacity="1" stroke-width="0.69739" stroke-linecap="butt" stroke-linejoin="miter" stroke="rgb(61.175537%, 61.959839%, 62.353516%)" stroke-opacity="1" stroke-miterlimit="10" d="M -41.676678 8.505035 L -54.700203 8.505035 C -55.799897 8.505035 -56.695363 7.613497 -56.695363 6.509875 L -56.695363 -6.509722 C -56.695363 -7.613344 -55.799897 -8.504882 -54.700203 -8.504882 L -41.676678 -8.504882 C -40.576983 -8.504882 -39.685445 -7.613344 -39.685445 -6.509722 L -39.685445 6.509875 C -39.685445 7.613497 -40.576983 8.505035 -41.676678 8.505035 Z M -41.676678 8.505035 " transform="matrix(0.994594, 0, 0, -0.994594, 99.416234, 70.728592)"/>
<path fill-rule="nonzero" fill="rgb(92.547607%, 92.939758%, 92.939758%)" fill-opacity="1" stroke-width="0.69739" stroke-linecap="butt" stroke-linejoin="miter" stroke="rgb(39.216614%, 39.608765%, 40.391541%)" stroke-opacity="1" stroke-miterlimit="10" d="M 60.944457 -0.00188699 C 60.944457 7.044013 55.2339 12.754569 48.188001 12.754569 C 41.146028 12.754569 35.431544 7.044013 35.431544 -0.00188699 C 35.431544 -7.043859 41.146028 -12.754416 48.188001 -12.754416 C 55.2339 -12.754416 60.944457 -7.043859 60.944457 -0.00188699 Z M 60.944457 -0.00188699 " transform="matrix(0.994594, 0, 0, -0.994594, 99.416234, 70.728592)"/>
<path fill="none" stroke-width="0.59776" stroke-linecap="butt" stroke-linejoin="miter" stroke="rgb(39.216614%, 39.608765%, 40.391541%)" stroke-opacity="1" stroke-miterlimit="10" d="M 37.72912 -7.314855 L 42.803425 11.564543 " transform="matrix(0.994594, 0, 0, -0.994594, 99.416234, 70.728592)"/>
<path fill="none" stroke-width="0.59776" stroke-linecap="butt" stroke-linejoin="miter" stroke="rgb(39.216614%, 39.608765%, 40.391541%)" stroke-opacity="1" stroke-miterlimit="10" d="M 58.650808 -7.314855 L 53.576504 11.564543 " transform="matrix(0.994594, 0, 0, -0.994594, 99.416234, 70.728592)"/>
<path fill="none" stroke-width="0.59776" stroke-linecap="butt" stroke-linejoin="miter" stroke="rgb(39.216614%, 39.608765%, 40.391541%)" stroke-opacity="1" stroke-miterlimit="10" d="M -55.057603 -6.867123 L -41.319277 6.867276 L -55.057603 6.867276 L -41.319277 -6.867123 Z M -55.057603 -6.867123 " transform="matrix(0.994594, 0, 0, -0.994594, 99.416234, 70.728592)"/>
<g fill="rgb(39.216614%, 39.608765%, 40.391541%)" fill-opacity="1">
<use xlink:href="#glyph-1-0" x="96.025662" y="71.931057"/>
<use xlink:href="#glyph-1-1" x="100.773438" y="71.931057"/>
<use xlink:href="#glyph-1-2" x="104.145384" y="71.931057"/>
<use xlink:href="#glyph-1-3" x="109.581322" y="71.931057"/>
<use xlink:href="#glyph-1-4" x="113.297102" y="71.931057"/>
<use xlink:href="#glyph-1-5" x="115.980886" y="71.931057"/>
<use xlink:href="#glyph-1-6" x="119.008503" y="71.931057"/>
<use xlink:href="#glyph-1-6" x="121.726472" y="71.931057"/>
<use xlink:href="#glyph-1-1" x="124.444441" y="71.931057"/>
<use xlink:href="#glyph-1-4" x="127.816388" y="71.931057"/>
</g>
<g fill="rgb(39.216614%, 39.608765%, 40.391541%)" fill-opacity="1">
<use xlink:href="#glyph-1-7" x="9.327862" y="69.439598"/>
<use xlink:href="#glyph-1-8" x="13.786798" y="69.439598"/>
<use xlink:href="#glyph-1-3" x="17.330661" y="69.439598"/>
<use xlink:href="#glyph-1-9" x="21.046441" y="69.439598"/>
<use xlink:href="#glyph-1-10" x="24.418387" y="69.439598"/>
<use xlink:href="#glyph-1-6" x="28.134167" y="69.439598"/>
<use xlink:href="#glyph-1-11" x="30.852136" y="69.439598"/>
<use xlink:href="#glyph-1-1" x="32.847758" y="69.439598"/>
<use xlink:href="#glyph-1-10" x="36.219704" y="69.439598"/>
</g>
<g fill="rgb(39.216614%, 39.608765%, 40.391541%)" fill-opacity="1">
<use xlink:href="#glyph-1-12" x="17.148358" y="75.385283"/>
</g>
<g fill="rgb(39.216614%, 39.608765%, 40.391541%)" fill-opacity="1">
<use xlink:href="#glyph-1-9" x="20.350369" y="75.385283"/>
<use xlink:href="#glyph-1-13" x="23.722316" y="75.385283"/>
<use xlink:href="#glyph-1-12" x="25.717937" y="75.385283"/>
</g>
<g fill="rgb(39.216614%, 39.608765%, 40.391541%)" fill-opacity="1">
<use xlink:href="#glyph-1-5" x="29.088397" y="75.385283"/>
</g>
<path fill="none" stroke-width="0.69739" stroke-linecap="butt" stroke-linejoin="miter" stroke="rgb(25.097656%, 49.804688%, 71.763611%)" stroke-opacity="1" stroke-miterlimit="10" d="M 30.113736 -28.346513 L 48.188001 -28.346513 L 48.188001 -18.535667 " transform="matrix(0.994594, 0, 0, -0.994594, 99.416234, 70.728592)"/>
<path fill-rule="nonzero" fill="rgb(25.097656%, 49.804688%, 71.763611%)" fill-opacity="1" stroke-width="0.69739" stroke-linecap="butt" stroke-linejoin="miter" stroke="rgb(25.097656%, 49.804688%, 71.763611%)" stroke-opacity="1" stroke-miterlimit="10" d="M 4.342476 0.0014694 C 3.808339 0.131076 1.463633 0.877298 -0.00131683 1.690286 L -0.00131683 -1.691275 C 1.463633 -0.878286 3.808339 -0.132065 4.342476 0.0014694 Z M 4.342476 0.0014694 " transform="matrix(0, -0.994594, -0.994594, 0, 147.345211, 89.162753)"/>
<path fill="none" stroke-width="0.69739" stroke-linecap="butt" stroke-linejoin="miter" stroke="rgb(84.70459%, 36.077881%, 25.489807%)" stroke-opacity="1" stroke-miterlimit="10" d="M 48.188001 12.754569 L 48.188001 28.346666 L 35.89106 28.346666 " transform="matrix(0.994594, 0, 0, -0.994594, 99.416234, 70.728592)"/>
<path fill-rule="nonzero" fill="rgb(84.70459%, 36.077881%, 25.489807%)" fill-opacity="1" stroke-width="0.69739" stroke-linecap="butt" stroke-linejoin="miter" stroke="rgb(84.70459%, 36.077881%, 25.489807%)" stroke-opacity="1" stroke-miterlimit="10" d="M 4.340026 0.000133704 C 3.805889 0.133668 1.465111 0.879889 0.000160421 1.68895 L 0.000160421 -1.688683 C 1.465111 -0.879622 3.805889 -0.133401 4.340026 0.000133704 Z M 4.340026 0.000133704 " transform="matrix(-0.994594, 0, 0, 0.994594, 135.113441, 42.535023)"/>
<path fill="none" stroke-width="0.69739" stroke-linecap="butt" stroke-linejoin="miter" stroke="rgb(84.70459%, 36.077881%, 25.489807%)" stroke-opacity="1" stroke-miterlimit="10" d="M -30.114175 28.346666 L -48.18844 28.346666 L -48.18844 14.631905 " transform="matrix(0.994594, 0, 0, -0.994594, 99.416234, 70.728592)"/>
<path fill-rule="nonzero" fill="rgb(84.70459%, 36.077881%, 25.489807%)" fill-opacity="1" stroke-width="0.69739" stroke-linecap="butt" stroke-linejoin="miter" stroke="rgb(84.70459%, 36.077881%, 25.489807%)" stroke-opacity="1" stroke-miterlimit="10" d="M 4.339061 0.00102991 C 3.808851 0.130637 1.464145 0.876858 -0.000804858 1.689846 L -0.000804858 -1.691714 C 1.464145 -0.878726 3.808851 -0.132504 4.339061 0.00102991 Z M 4.339061 0.00102991 " transform="matrix(0, 0.994594, 0.994594, 0, 51.487257, 56.176582)"/>
<path fill="none" stroke-width="0.69739" stroke-linecap="butt" stroke-linejoin="miter" stroke="rgb(25.097656%, 49.804688%, 71.763611%)" stroke-opacity="1" stroke-miterlimit="10" d="M -48.18844 -8.854428 L -48.18844 -28.346513 L -35.891499 -28.346513 " transform="matrix(0.994594, 0, 0, -0.994594, 99.416234, 70.728592)"/>
<path fill-rule="nonzero" fill="rgb(25.097656%, 49.804688%, 71.763611%)" fill-opacity="1" stroke-width="0.69739" stroke-linecap="butt" stroke-linejoin="miter" stroke="rgb(25.097656%, 49.804688%, 71.763611%)" stroke-opacity="1" stroke-miterlimit="10" d="M 4.339587 0.000287214 C 3.809377 0.129894 1.464671 0.880043 -0.000279068 1.689104 L -0.000279068 -1.692457 C 1.464671 -0.879468 3.809377 -0.133247 4.339587 0.000287214 Z M 4.339587 0.000287214 " transform="matrix(0.994594, 0, 0, -0.994594, 63.719028, 98.922161)"/>
<path fill-rule="nonzero" fill="rgb(0%, 32.939148%, 62.353516%)" fill-opacity="1" d="M 149.601562 98.921875 C 149.601562 97.675781 148.589844 96.667969 147.34375 96.667969 C 146.097656 96.667969 145.089844 97.675781 145.089844 98.921875 C 145.089844 100.167969 146.097656 101.175781 147.34375 101.175781 C 148.589844 101.175781 149.601562 100.167969 149.601562 98.921875 Z M 149.601562 98.921875 "/>
<g fill="rgb(0%, 32.939148%, 62.353516%)" fill-opacity="1">
<use xlink:href="#glyph-2-0" x="151.017781" y="107.065104"/>
</g>
<path fill-rule="nonzero" fill="rgb(79.998779%, 2.74353%, 11.764526%)" fill-opacity="1" d="M 149.601562 42.535156 C 149.601562 41.289062 148.589844 40.28125 147.34375 40.28125 C 146.097656 40.28125 145.089844 41.289062 145.089844 42.535156 C 145.089844 43.78125 146.097656 44.789062 147.34375 44.789062 C 148.589844 44.789062 149.601562 43.78125 149.601562 42.535156 Z M 149.601562 42.535156 "/>
<g fill="rgb(79.998779%, 2.74353%, 11.764526%)" fill-opacity="1">
<use xlink:href="#glyph-2-1" x="151.017781" y="38.862782"/>
</g>
<path fill-rule="nonzero" fill="rgb(79.998779%, 2.74353%, 11.764526%)" fill-opacity="1" d="M 53.742188 42.535156 C 53.742188 41.289062 52.734375 40.28125 51.488281 40.28125 C 50.242188 40.28125 49.230469 41.289062 49.230469 42.535156 C 49.230469 43.78125 50.242188 44.789062 51.488281 44.789062 C 52.734375 44.789062 53.742188 43.78125 53.742188 42.535156 Z M 53.742188 42.535156 "/>
<g fill="rgb(79.998779%, 2.74353%, 11.764526%)" fill-opacity="1">
<use xlink:href="#glyph-2-2" x="43.325088" y="38.862782"/>
</g>
<path fill-rule="nonzero" fill="rgb(0%, 32.939148%, 62.353516%)" fill-opacity="1" d="M 53.742188 98.921875 C 53.742188 97.675781 52.734375 96.667969 51.488281 96.667969 C 50.242188 96.667969 49.230469 97.675781 49.230469 98.921875 C 49.230469 100.167969 50.242188 101.175781 51.488281 101.175781 C 52.734375 101.175781 53.742188 100.167969 53.742188 98.921875 Z M 53.742188 98.921875 "/>
<g fill="rgb(0%, 32.939148%, 62.353516%)" fill-opacity="1">
<use xlink:href="#glyph-2-3" x="43.325088" y="107.065104"/>
</g>
<path fill="none" stroke-width="0.99628" stroke-linecap="butt" stroke-linejoin="miter" stroke="rgb(79.998779%, 2.74353%, 11.764526%)" stroke-opacity="1" stroke-miterlimit="10" d="M 0.001744 35.781387 L 0.001744 36.778967 C 0.001744 37.277757 -0.497046 37.525188 -0.497046 38.023978 C -0.497046 38.385306 -0.253542 38.695577 0.001744 39.021558 C 0.253103 39.343611 0.496607 39.653882 0.496607 40.01521 C 0.496607 40.376539 0.253103 40.68681 0.001744 41.01279 C -0.253542 41.338771 -0.497046 41.649042 -0.497046 42.01037 C -0.497046 42.367771 -0.253542 42.68197 0.001744 43.004023 C 0.253103 43.330004 0.496607 43.640275 0.496607 44.001603 C 0.496607 44.500393 0.001744 44.747824 0.001744 45.246614 L 0.001744 42.980458 " transform="matrix(0.994594, 0, 0, -0.994594, 99.416234, 70.728592)"/>
<path fill-rule="nonzero" fill="rgb(79.998779%, 2.74353%, 11.764526%)" fill-opacity="1" stroke-width="0.99628" stroke-linecap="butt" stroke-linejoin="miter" stroke="rgb(79.998779%, 2.74353%, 11.764526%)" stroke-opacity="1" stroke-miterlimit="10" d="M 4.919951 -0.001744 C 4.315119 0.151428 1.660142 1.003691 -0.00118186 1.934504 L -0.00118186 -1.934064 C 1.660142 -1.003251 4.315119 -0.150988 4.919951 -0.001744 Z M 4.919951 -0.001744 " transform="matrix(0, -0.994594, -0.994594, 0, 99.416234, 27.979293)"/>
<g fill="rgb(79.998779%, 2.74353%, 11.764526%)" fill-opacity="1">
<use xlink:href="#glyph-3-0" x="68.60171" y="16.045792"/>
</g>
<g fill="rgb(79.998779%, 2.74353%, 11.764526%)" fill-opacity="1">
<use xlink:href="#glyph-1-14" x="74.841796" y="17.036408"/>
</g>
<g fill="rgb(79.998779%, 2.74353%, 11.764526%)" fill-opacity="1">
<use xlink:href="#glyph-0-12" x="81.035135" y="16.045792"/>
</g>
<g fill="rgb(79.998779%, 2.74353%, 11.764526%)" fill-opacity="1">
<use xlink:href="#glyph-2-4" x="87.870664" y="16.045792"/>
<use xlink:href="#glyph-2-5" x="92.852866" y="16.045792"/>
<use xlink:href="#glyph-2-6" x="96.961813" y="16.045792"/>
<use xlink:href="#glyph-2-7" x="101.32809" y="16.045792"/>
</g>
<g fill="rgb(79.998779%, 2.74353%, 11.764526%)" fill-opacity="1">
<use xlink:href="#glyph-2-8" x="107.842477" y="16.045792"/>
<use xlink:href="#glyph-2-9" x="112.82468" y="16.045792"/>
<use xlink:href="#glyph-2-10" x="117.806882" y="16.045792"/>
<use xlink:href="#glyph-2-8" x="125.252095" y="16.045792"/>
</g>
<path fill="none" stroke-width="0.99628" stroke-linecap="butt" stroke-linejoin="miter" stroke="rgb(0%, 32.939148%, 62.353516%)" stroke-opacity="1" stroke-miterlimit="10" d="M 0.001744 -49.95551 L 0.001744 -48.95793 C 0.001744 -48.463067 -0.497046 -48.211708 -0.497046 -47.712918 C -0.497046 -47.35159 -0.253542 -47.041319 0.001744 -46.719266 C 0.253103 -46.393285 0.496607 -46.083014 0.496607 -45.721686 C 0.496607 -45.360358 0.253103 -45.050087 0.001744 -44.724106 C -0.253542 -44.402053 -0.497046 -44.087854 -0.497046 -43.730453 C -0.497046 -43.369125 -0.253542 -43.058854 0.001744 -42.732873 C 0.253103 -42.406892 0.496607 -42.096622 0.496607 -41.735293 C 0.496607 -41.236503 0.001744 -40.989072 0.001744 -40.490282 L 0.001744 -42.756438 " transform="matrix(0.994594, 0, 0, -0.994594, 99.416234, 70.728592)"/>
<path fill-rule="nonzero" fill="rgb(0%, 32.939148%, 62.353516%)" fill-opacity="1" stroke-width="0.99628" stroke-linecap="butt" stroke-linejoin="miter" stroke="rgb(0%, 32.939148%, 62.353516%)" stroke-opacity="1" stroke-miterlimit="10" d="M 4.920815 -0.001744 C 4.315983 0.151428 1.661006 1.003691 -0.000318248 1.934504 L -0.000318248 -1.934064 C 1.661006 -1.003251 4.315983 -0.150988 4.920815 -0.001744 Z M 4.920815 -0.001744 " transform="matrix(0, -0.994594, -0.994594, 0, 99.416234, 113.25359)"/>
<g fill="rgb(0%, 32.939148%, 62.353516%)" fill-opacity="1">
<use xlink:href="#glyph-3-0" x="65.296673" y="128.879543"/>
</g>
<g fill="rgb(0%, 32.939148%, 62.353516%)" fill-opacity="1">
<use xlink:href="#glyph-1-5" x="71.537753" y="129.871154"/>
</g>
<g fill="rgb(0%, 32.939148%, 62.353516%)" fill-opacity="1">
<use xlink:href="#glyph-0-12" x="77.730098" y="128.879543"/>
</g>
<g fill="rgb(0%, 32.939148%, 62.353516%)" fill-opacity="1">
<use xlink:href="#glyph-2-11" x="84.565627" y="128.879543"/>
<use xlink:href="#glyph-2-5" x="88.272974" y="128.879543"/>
<use xlink:href="#glyph-2-12" x="92.381921" y="128.879543"/>
<use xlink:href="#glyph-2-11" x="95.146651" y="128.879543"/>
<use xlink:href="#glyph-2-13" x="98.853998" y="128.879543"/>
<use xlink:href="#glyph-2-14" x="101.372497" y="128.879543"/>
<use xlink:href="#glyph-2-5" x="105.861542" y="128.879543"/>
<use xlink:href="#glyph-2-11" x="109.970489" y="128.879543"/>
<use xlink:href="#glyph-2-6" x="113.677836" y="128.879543"/>
<use xlink:href="#glyph-2-7" x="118.044113" y="128.879543"/>
<use xlink:href="#glyph-2-13" x="121.548231" y="128.879543"/>
<use xlink:href="#glyph-2-15" x="124.06673" y="128.879543"/>
<use xlink:href="#glyph-2-16" x="128.555776" y="128.879543"/>
</g>
<path fill="none" stroke-width="0.99628" stroke-linecap="butt" stroke-linejoin="miter" stroke="rgb(0%, 0%, 0%)" stroke-opacity="1" stroke-miterlimit="10" d="M 80.790015 -0.00188699 L 68.485219 -0.00188699 " transform="matrix(0.994594, 0, 0, -0.994594, 99.416234, 70.728592)"/>
<path fill-rule="nonzero" fill="rgb(0%, 0%, 0%)" fill-opacity="1" stroke-width="0.99628" stroke-linecap="butt" stroke-linejoin="miter" stroke="rgb(0%, 0%, 0%)" stroke-opacity="1" stroke-miterlimit="10" d="M 4.918416 0.00188699 C 4.317512 0.151131 1.658608 1.003394 0.00121086 1.934207 L 0.00121086 -1.934361 C 1.658608 -1.003548 4.317512 -0.151285 4.918416 0.00188699 Z M 4.918416 0.00188699 " transform="matrix(-0.994594, 0, 0, 0.994594, 167.532454, 70.728592)"/>
<g fill="rgb(0%, 0%, 0%)" fill-opacity="1">
<use xlink:href="#glyph-3-1" x="164.617865" y="66.028139"/>
</g>
<g fill="rgb(0%, 0%, 0%)" fill-opacity="1">
<use xlink:href="#glyph-1-5" x="169.662448" y="67.079425"/>
<use xlink:href="#glyph-1-13" x="172.690065" y="67.079425"/>
</g>
</svg>
