<?xml version="1.0" encoding="UTF-8"?>
<svg xmlns="http://www.w3.org/2000/svg" xmlns:xlink="http://www.w3.org/1999/xlink" width="177.897pt" height="79.552pt" viewBox="0 0 177.897 79.552">
<defs>
<g>
<g id="glyph-0-0">
<path d="M 1.96875 -3.15625 C 1.96875 -3.296875 1.953125 -3.296875 1.796875 -3.296875 C 1.4375 -2.984375 0.890625 -2.984375 0.796875 -2.984375 L 0.703125 -2.984375 L 0.703125 -2.765625 L 0.796875 -2.765625 C 0.90625 -2.765625 1.234375 -2.78125 1.515625 -2.90625 L 1.515625 -0.421875 C 1.515625 -0.265625 1.515625 -0.21875 0.984375 -0.21875 L 0.75 -0.21875 L 0.75 0 C 1.015625 -0.015625 1.453125 -0.015625 1.75 -0.015625 C 2.03125 -0.015625 2.46875 -0.015625 2.75 0 L 2.75 -0.21875 L 2.5 -0.21875 C 1.96875 -0.21875 1.96875 -0.265625 1.96875 -0.421875 Z M 1.96875 -3.15625 "/>
</g>
<g id="glyph-0-1">
<path d="M 2.921875 -0.953125 L 2.703125 -0.953125 C 2.6875 -0.859375 2.640625 -0.5625 2.5625 -0.5 C 2.53125 -0.46875 2.109375 -0.46875 2.03125 -0.46875 L 1.0625 -0.46875 C 1.390625 -0.71875 1.765625 -1 2.0625 -1.1875 C 2.5 -1.5 2.921875 -1.78125 2.921875 -2.3125 C 2.921875 -2.953125 2.3125 -3.296875 1.609375 -3.296875 C 0.9375 -3.296875 0.453125 -2.90625 0.453125 -2.421875 C 0.453125 -2.171875 0.671875 -2.125 0.734375 -2.125 C 0.875 -2.125 1.03125 -2.21875 1.03125 -2.421875 C 1.03125 -2.59375 0.90625 -2.6875 0.75 -2.703125 C 0.890625 -2.9375 1.171875 -3.078125 1.5 -3.078125 C 1.984375 -3.078125 2.390625 -2.796875 2.390625 -2.3125 C 2.390625 -1.890625 2.09375 -1.578125 1.71875 -1.25 L 0.515625 -0.234375 C 0.453125 -0.1875 0.453125 -0.1875 0.453125 -0.15625 L 0.453125 0 L 2.75 0 Z M 2.921875 -0.953125 "/>
</g>
<g id="glyph-0-2">
<path d="M 1.640625 -1.640625 C 2.09375 -1.640625 2.390625 -1.359375 2.390625 -0.859375 C 2.390625 -0.359375 2.078125 -0.09375 1.640625 -0.09375 C 1.578125 -0.09375 1 -0.09375 0.75 -0.359375 C 0.953125 -0.375 1 -0.53125 1 -0.65625 C 1 -0.84375 0.859375 -0.953125 0.703125 -0.953125 C 0.546875 -0.953125 0.390625 -0.859375 0.390625 -0.640625 C 0.390625 -0.125 0.984375 0.109375 1.65625 0.109375 C 2.46875 0.109375 2.96875 -0.375 2.96875 -0.859375 C 2.96875 -1.265625 2.609375 -1.609375 2.046875 -1.75 C 2.640625 -1.9375 2.796875 -2.3125 2.796875 -2.59375 C 2.796875 -3 2.296875 -3.296875 1.671875 -3.296875 C 1.0625 -3.296875 0.5625 -3.046875 0.5625 -2.59375 C 0.5625 -2.359375 0.765625 -2.296875 0.859375 -2.296875 C 1 -2.296875 1.140625 -2.40625 1.140625 -2.578125 C 1.140625 -2.703125 1.078125 -2.84375 0.890625 -2.875 C 1.109375 -3.09375 1.546875 -3.109375 1.65625 -3.109375 C 2.015625 -3.109375 2.28125 -2.921875 2.28125 -2.59375 C 2.28125 -2.296875 2.078125 -1.859375 1.5625 -1.828125 C 1.421875 -1.8125 1.40625 -1.8125 1.28125 -1.8125 C 1.21875 -1.796875 1.171875 -1.796875 1.171875 -1.71875 C 1.171875 -1.640625 1.21875 -1.640625 1.3125 -1.640625 Z M 1.640625 -1.640625 "/>
</g>
<g id="glyph-0-3">
<path d="M 3.0625 -0.8125 L 3.0625 -1.03125 L 2.4375 -1.03125 L 2.4375 -3.203125 C 2.4375 -3.328125 2.4375 -3.359375 2.296875 -3.359375 C 2.203125 -3.359375 2.203125 -3.34375 2.140625 -3.28125 L 0.3125 -1.03125 L 0.3125 -0.8125 L 1.96875 -0.8125 L 1.96875 -0.421875 C 1.96875 -0.265625 1.96875 -0.21875 1.53125 -0.21875 L 1.359375 -0.21875 L 1.359375 0 C 1.59375 -0.015625 1.90625 -0.015625 2.203125 -0.015625 C 2.484375 -0.015625 2.796875 -0.015625 3.046875 0 L 3.046875 -0.21875 L 2.875 -0.21875 C 2.4375 -0.21875 2.4375 -0.265625 2.4375 -0.421875 L 2.4375 -0.8125 Z M 2 -2.8125 L 2 -1.03125 L 0.546875 -1.03125 Z M 2 -2.8125 "/>
</g>
<g id="glyph-0-4">
<path d="M 0.96875 -2.734375 C 1.234375 -2.671875 1.453125 -2.671875 1.515625 -2.671875 C 1.84375 -2.671875 2.09375 -2.765625 2.21875 -2.828125 C 2.34375 -2.890625 2.671875 -3.109375 2.671875 -3.21875 C 2.671875 -3.28125 2.625 -3.296875 2.609375 -3.296875 C 2.59375 -3.296875 2.59375 -3.296875 2.53125 -3.28125 C 2.34375 -3.203125 2.046875 -3.140625 1.71875 -3.140625 C 1.4375 -3.140625 1.15625 -3.1875 0.890625 -3.28125 C 0.84375 -3.296875 0.828125 -3.296875 0.828125 -3.296875 C 0.75 -3.296875 0.75 -3.234375 0.75 -3.15625 L 0.75 -1.671875 C 0.75 -1.59375 0.75 -1.53125 0.84375 -1.53125 C 0.90625 -1.53125 0.90625 -1.53125 0.953125 -1.59375 C 1.140625 -1.8125 1.40625 -1.921875 1.734375 -1.921875 C 2.03125 -1.921875 2.1875 -1.75 2.25 -1.640625 C 2.375 -1.46875 2.390625 -1.25 2.390625 -1.015625 C 2.390625 -0.8125 2.375 -0.53125 2.171875 -0.34375 C 1.953125 -0.109375 1.671875 -0.09375 1.5625 -0.09375 C 1.25 -0.09375 0.875 -0.234375 0.734375 -0.53125 C 0.9375 -0.546875 1 -0.6875 1 -0.796875 C 1 -0.953125 0.890625 -1.078125 0.734375 -1.078125 C 0.625 -1.078125 0.453125 -1.015625 0.453125 -0.78125 C 0.453125 -0.296875 0.921875 0.109375 1.578125 0.109375 C 2.3125 0.109375 2.921875 -0.390625 2.921875 -1 C 2.921875 -1.5625 2.4375 -2.078125 1.75 -2.078125 C 1.4375 -2.078125 1.1875 -2 0.96875 -1.84375 Z M 0.96875 -2.734375 "/>
</g>
<g id="glyph-0-5">
<path d="M 1.296875 -3.046875 C 1.296875 -3.21875 1.15625 -3.359375 1 -3.359375 C 0.828125 -3.359375 0.6875 -3.21875 0.6875 -3.046875 C 0.6875 -2.875 0.828125 -2.75 1 -2.75 C 1.15625 -2.75 1.296875 -2.875 1.296875 -3.046875 Z M 1.296875 -3.046875 "/>
</g>
<g id="glyph-0-6">
<path d="M 2.21875 -2.078125 C 2.21875 -2.171875 2.21875 -2.21875 2.140625 -2.21875 C 2.109375 -2.21875 2.09375 -2.21875 2.046875 -2.1875 C 2.03125 -2.171875 1.9375 -2.078125 1.921875 -2.078125 C 1.921875 -2.078125 1.90625 -2.078125 1.875 -2.109375 C 1.765625 -2.171875 1.578125 -2.21875 1.328125 -2.21875 C 0.515625 -2.21875 0.34375 -1.84375 0.34375 -1.609375 C 0.34375 -1.15625 0.921875 -1.0625 1.375 -0.984375 C 1.671875 -0.953125 2.125 -0.875 2.125 -0.546875 C 2.125 -0.359375 1.96875 -0.109375 1.375 -0.109375 C 1.046875 -0.109375 0.71875 -0.234375 0.5625 -0.765625 C 0.546875 -0.84375 0.53125 -0.859375 0.453125 -0.859375 C 0.34375 -0.859375 0.34375 -0.828125 0.34375 -0.71875 L 0.34375 -0.078125 C 0.34375 0 0.34375 0.046875 0.421875 0.046875 C 0.46875 0.046875 0.46875 0.046875 0.5625 -0.046875 L 0.6875 -0.171875 C 0.9375 0.046875 1.25 0.046875 1.375 0.046875 C 2.203125 0.046875 2.375 -0.375 2.375 -0.625 C 2.375 -0.84375 2.25 -1.015625 2.0625 -1.125 C 1.859375 -1.25 1.703125 -1.265625 1.296875 -1.34375 C 0.96875 -1.390625 0.59375 -1.453125 0.59375 -1.703125 C 0.59375 -1.875 0.78125 -2.078125 1.328125 -2.078125 C 1.734375 -2.078125 1.96875 -1.90625 2 -1.5625 C 2.015625 -1.484375 2.015625 -1.46875 2.109375 -1.46875 C 2.21875 -1.46875 2.21875 -1.5 2.21875 -1.59375 Z M 2.21875 -2.078125 "/>
</g>
<g id="glyph-0-7">
<path d="M 2.5625 -1.109375 C 2.671875 -1.109375 2.703125 -1.109375 2.703125 -1.234375 C 2.703125 -1.5625 2.53125 -2.21875 1.609375 -2.21875 C 0.859375 -2.21875 0.328125 -1.671875 0.328125 -1.09375 C 0.328125 -0.453125 0.921875 0.046875 1.671875 0.046875 C 2.46875 0.046875 2.703125 -0.5 2.703125 -0.59375 C 2.703125 -0.671875 2.625 -0.671875 2.609375 -0.671875 C 2.53125 -0.671875 2.515625 -0.65625 2.484375 -0.578125 C 2.359375 -0.25 1.984375 -0.125 1.703125 -0.125 C 1.3125 -0.125 1.078125 -0.34375 1.015625 -0.4375 C 0.8125 -0.671875 0.8125 -0.984375 0.8125 -1.109375 Z M 0.828125 -1.265625 C 0.890625 -1.921875 1.359375 -2.0625 1.59375 -2.0625 C 2.28125 -2.0625 2.328125 -1.40625 2.328125 -1.265625 Z M 0.828125 -1.265625 "/>
</g>
<g id="glyph-0-8">
<path d="M 2.21875 -2 C 2.15625 -1.953125 2.109375 -1.875 2.109375 -1.78125 C 2.109375 -1.609375 2.234375 -1.515625 2.375 -1.515625 C 2.5 -1.515625 2.640625 -1.59375 2.640625 -1.78125 C 2.640625 -2.203125 2.09375 -2.21875 1.75 -2.21875 C 0.765625 -2.21875 0.359375 -1.5625 0.359375 -1.0625 C 0.359375 -0.453125 0.9375 0.046875 1.6875 0.046875 C 2.546875 0.046875 2.703125 -0.546875 2.703125 -0.59375 C 2.703125 -0.65625 2.640625 -0.65625 2.609375 -0.65625 C 2.53125 -0.65625 2.515625 -0.65625 2.5 -0.59375 C 2.328125 -0.171875 1.96875 -0.125 1.75 -0.125 C 1.328125 -0.125 0.859375 -0.40625 0.859375 -1.078125 C 0.859375 -1.296875 0.890625 -1.5625 1.078125 -1.765625 C 1.3125 -2.046875 1.609375 -2.046875 1.765625 -2.046875 C 1.90625 -2.046875 2.046875 -2.046875 2.21875 -2 Z M 2.21875 -2 "/>
</g>
<g id="glyph-0-9">
<path d="M 1.25 -3.046875 C 1.25 -3.21875 1.125 -3.359375 0.953125 -3.359375 C 0.796875 -3.359375 0.65625 -3.234375 0.65625 -3.046875 C 0.65625 -2.875 0.796875 -2.75 0.953125 -2.75 C 1.125 -2.75 1.25 -2.890625 1.25 -3.046875 Z M 0.4375 -2.140625 L 0.4375 -1.921875 C 0.78125 -1.921875 0.828125 -1.875 0.828125 -1.640625 L 0.828125 -0.421875 C 0.828125 -0.265625 0.828125 -0.21875 0.5 -0.21875 L 0.40625 -0.21875 L 0.40625 0 C 0.609375 -0.015625 0.828125 -0.015625 1.03125 -0.015625 C 1.21875 -0.015625 1.4375 -0.015625 1.609375 0 L 1.609375 -0.21875 C 1.28125 -0.21875 1.25 -0.21875 1.25 -0.421875 L 1.25 -2.1875 Z M 0.4375 -2.140625 "/>
</g>
<g id="glyph-0-10">
<path d="M 2.96875 -1.5 C 2.96875 -2.046875 2.59375 -2.1875 2.140625 -2.1875 C 1.609375 -2.1875 1.328125 -1.890625 1.21875 -1.703125 L 1.21875 -2.1875 L 0.40625 -2.140625 L 0.40625 -1.921875 C 0.765625 -1.921875 0.8125 -1.875 0.8125 -1.640625 L 0.8125 -0.421875 C 0.8125 -0.265625 0.8125 -0.21875 0.5 -0.21875 L 0.40625 -0.21875 L 0.40625 0 C 0.625 -0.015625 0.828125 -0.015625 1.046875 -0.015625 C 1.25 -0.015625 1.46875 -0.015625 1.671875 0 L 1.671875 -0.21875 L 1.578125 -0.21875 C 1.265625 -0.21875 1.265625 -0.265625 1.265625 -0.421875 L 1.265625 -1.28125 C 1.265625 -1.84375 1.765625 -2.03125 2.078125 -2.03125 C 2.453125 -2.03125 2.53125 -1.8125 2.53125 -1.5 L 2.53125 -0.421875 C 2.53125 -0.265625 2.53125 -0.21875 2.203125 -0.21875 L 2.125 -0.21875 L 2.125 0 C 2.328125 -0.015625 2.546875 -0.015625 2.75 -0.015625 C 2.96875 -0.015625 3.171875 -0.015625 3.390625 0 L 3.390625 -0.21875 L 3.296875 -0.21875 C 2.96875 -0.21875 2.96875 -0.265625 2.96875 -0.421875 Z M 2.96875 -1.5 "/>
</g>
<g id="glyph-0-11">
<path d="M 3.046875 -1.0625 C 3.046875 -1.671875 2.46875 -2.21875 1.6875 -2.21875 C 0.90625 -2.21875 0.328125 -1.671875 0.328125 -1.0625 C 0.328125 -0.453125 0.90625 0.046875 1.6875 0.046875 C 2.46875 0.046875 3.046875 -0.453125 3.046875 -1.0625 Z M 1.6875 -0.125 C 0.8125 -0.125 0.8125 -0.859375 0.8125 -1.109375 C 0.8125 -1.328125 0.8125 -2.0625 1.6875 -2.0625 C 2.546875 -2.0625 2.546875 -1.328125 2.546875 -1.109375 C 2.546875 -0.859375 2.546875 -0.125 1.6875 -0.125 Z M 1.6875 -0.125 "/>
</g>
<g id="glyph-0-12">
<path d="M 2.125 -2.140625 L 2.125 -1.921875 C 2.484375 -1.921875 2.53125 -1.875 2.53125 -1.640625 L 2.53125 -0.828125 C 2.53125 -0.375 2.1875 -0.109375 1.78125 -0.109375 C 1.28125 -0.109375 1.265625 -0.3125 1.265625 -0.5625 L 1.265625 -2.1875 L 0.40625 -2.140625 L 0.40625 -1.921875 C 0.78125 -1.921875 0.8125 -1.875 0.8125 -1.625 L 0.8125 -0.546875 C 0.859375 0.015625 1.421875 0.046875 1.75 0.046875 C 2.15625 0.046875 2.40625 -0.140625 2.546875 -0.359375 L 2.546875 0.046875 L 3.390625 0 L 3.390625 -0.21875 C 3.015625 -0.21875 2.96875 -0.25 2.96875 -0.5 L 2.96875 -2.1875 Z M 2.125 -2.140625 "/>
</g>
<g id="glyph-0-13">
<path d="M 1.21875 -1.921875 L 2.09375 -1.921875 L 2.09375 -2.140625 L 1.21875 -2.140625 L 1.21875 -3.046875 L 1.015625 -3.046875 C 1 -2.578125 0.765625 -2.09375 0.25 -2.078125 L 0.25 -1.921875 L 0.78125 -1.921875 L 0.78125 -0.625 C 0.78125 -0.0625 1.25 0.046875 1.546875 0.046875 C 1.921875 0.046875 2.203125 -0.21875 2.203125 -0.625 L 2.203125 -0.890625 L 1.984375 -0.890625 L 1.984375 -0.640625 C 1.984375 -0.265625 1.765625 -0.125 1.59375 -0.125 C 1.21875 -0.125 1.21875 -0.515625 1.21875 -0.625 Z M 1.21875 -1.921875 "/>
</g>
<g id="glyph-0-14">
<path d="M 1.203125 -1.109375 C 1.203125 -1.5625 1.46875 -2.015625 1.9375 -2.03125 C 1.9375 -2.015625 1.875 -1.953125 1.875 -1.84375 C 1.875 -1.671875 2.015625 -1.59375 2.125 -1.59375 C 2.25 -1.59375 2.375 -1.671875 2.375 -1.84375 C 2.375 -2.03125 2.1875 -2.1875 1.9375 -2.1875 C 1.6875 -2.1875 1.359375 -2.0625 1.171875 -1.640625 L 1.171875 -2.1875 L 0.375 -2.140625 L 0.375 -1.921875 C 0.75 -1.921875 0.78125 -1.875 0.78125 -1.640625 L 0.78125 -0.421875 C 0.78125 -0.265625 0.78125 -0.21875 0.46875 -0.21875 L 0.375 -0.21875 L 0.375 0 C 0.578125 -0.015625 0.8125 -0.015625 1.015625 -0.015625 C 1.265625 -0.015625 1.515625 -0.015625 1.71875 0 L 1.71875 -0.21875 L 1.59375 -0.21875 C 1.203125 -0.21875 1.203125 -0.265625 1.203125 -0.421875 Z M 1.203125 -1.109375 "/>
</g>
<g id="glyph-0-15">
<path d="M 1.25 -1.921875 L 1.953125 -1.921875 L 1.953125 -2.140625 L 1.234375 -2.140625 L 1.234375 -2.671875 C 1.234375 -3.140625 1.53125 -3.328125 1.765625 -3.328125 C 1.796875 -3.328125 1.890625 -3.3125 1.890625 -3.296875 C 1.859375 -3.265625 1.8125 -3.203125 1.8125 -3.09375 C 1.8125 -2.96875 1.90625 -2.84375 2.0625 -2.84375 C 2.21875 -2.84375 2.3125 -2.96875 2.3125 -3.109375 C 2.3125 -3.3125 2.109375 -3.484375 1.765625 -3.484375 C 1.34375 -3.484375 0.828125 -3.21875 0.828125 -2.671875 L 0.828125 -2.140625 L 0.34375 -2.140625 L 0.34375 -1.921875 L 0.828125 -1.921875 L 0.828125 -0.421875 C 0.828125 -0.265625 0.828125 -0.21875 0.5 -0.21875 L 0.421875 -0.21875 L 0.421875 0 C 0.625 -0.015625 0.84375 -0.015625 1.0625 -0.015625 C 1.3125 -0.015625 1.5625 -0.015625 1.765625 0 L 1.765625 -0.21875 L 1.625 -0.21875 C 1.25 -0.21875 1.25 -0.265625 1.25 -0.421875 Z M 1.25 -1.921875 "/>
</g>
<g id="glyph-1-0">
<path d="M 2.671875 -0.4375 C 2.640625 -0.328125 2.59375 -0.15625 2.59375 -0.125 C 2.59375 -0.015625 2.6875 0.046875 2.78125 0.046875 C 2.859375 0.046875 2.96875 0.015625 3.015625 -0.109375 C 3.03125 -0.140625 3.078125 -0.359375 3.109375 -0.5 C 3.28125 -1.15625 3.28125 -1.171875 3.296875 -1.1875 C 3.359375 -1.328125 3.71875 -2.015625 4.3125 -2.015625 C 4.5625 -2.015625 4.671875 -1.890625 4.671875 -1.671875 C 4.671875 -1.375 4.453125 -0.875 4.34375 -0.59375 C 4.3125 -0.53125 4.296875 -0.46875 4.296875 -0.375 C 4.296875 -0.125 4.546875 0.046875 4.828125 0.046875 C 5.359375 0.046875 5.640625 -0.59375 5.640625 -0.71875 C 5.640625 -0.78125 5.546875 -0.78125 5.53125 -0.78125 C 5.453125 -0.78125 5.4375 -0.765625 5.40625 -0.671875 C 5.3125 -0.375 5.09375 -0.109375 4.859375 -0.109375 C 4.734375 -0.109375 4.703125 -0.1875 4.703125 -0.296875 C 4.703125 -0.40625 4.71875 -0.453125 4.765625 -0.5625 C 4.859375 -0.765625 5.078125 -1.328125 5.078125 -1.59375 C 5.078125 -1.96875 4.8125 -2.1875 4.34375 -2.1875 C 3.890625 -2.1875 3.5625 -1.90625 3.375 -1.640625 C 3.328125 -2.15625 2.828125 -2.1875 2.625 -2.1875 C 2.140625 -2.1875 1.875 -1.890625 1.6875 -1.703125 C 1.671875 -2.140625 1.21875 -2.1875 1.09375 -2.1875 C 0.59375 -2.1875 0.453125 -1.4375 0.453125 -1.421875 C 0.453125 -1.359375 0.53125 -1.359375 0.5625 -1.359375 C 0.640625 -1.359375 0.65625 -1.375 0.671875 -1.453125 C 0.75 -1.734375 0.859375 -2.015625 1.0625 -2.015625 C 1.234375 -2.015625 1.265625 -1.859375 1.265625 -1.765625 C 1.265625 -1.6875 1.21875 -1.5 1.1875 -1.375 C 1.15625 -1.234375 1.109375 -1.03125 1.078125 -0.921875 L 0.96875 -0.484375 C 0.9375 -0.359375 0.875 -0.140625 0.875 -0.125 C 0.875 -0.015625 0.96875 0.046875 1.0625 0.046875 C 1.140625 0.046875 1.25 0.015625 1.296875 -0.109375 C 1.3125 -0.140625 1.359375 -0.359375 1.390625 -0.5 C 1.421875 -0.578125 1.46875 -0.78125 1.484375 -0.84375 C 1.515625 -0.953125 1.546875 -1.0625 1.5625 -1.171875 C 1.578125 -1.1875 1.75 -1.546875 2 -1.765625 C 2.078125 -1.828125 2.28125 -2.015625 2.609375 -2.015625 C 2.859375 -2.015625 2.953125 -1.875 2.953125 -1.671875 C 2.953125 -1.5625 2.90625 -1.359375 2.859375 -1.203125 Z M 2.671875 -0.4375 "/>
</g>
<g id="glyph-1-1">
<path d="M 1.828125 -3.25 C 1.84375 -3.3125 1.84375 -3.328125 1.84375 -3.359375 C 1.84375 -3.4375 1.765625 -3.4375 1.6875 -3.4375 L 1.078125 -3.390625 C 1 -3.390625 0.984375 -3.375 0.953125 -3.359375 C 0.9375 -3.328125 0.921875 -3.28125 0.921875 -3.25 C 0.921875 -3.15625 1 -3.15625 1.078125 -3.15625 C 1.078125 -3.15625 1.171875 -3.15625 1.25 -3.15625 C 1.34375 -3.140625 1.34375 -3.125 1.34375 -3.078125 C 1.34375 -3.078125 1.34375 -3.0625 1.3125 -2.96875 L 0.640625 -0.234375 C 0.609375 -0.15625 0.609375 -0.15625 0.609375 -0.125 C 0.609375 -0.015625 0.703125 0.046875 0.796875 0.046875 C 0.90625 0.046875 1.015625 -0.015625 1.046875 -0.140625 C 1.0625 -0.1875 1.078125 -0.25 1.15625 -0.578125 L 1.234375 -0.921875 C 1.3125 -1.21875 1.3125 -1.21875 1.453125 -1.4375 C 1.65625 -1.75 1.953125 -2.015625 2.34375 -2.015625 C 2.59375 -2.015625 2.6875 -1.875 2.6875 -1.671875 C 2.6875 -1.390625 2.46875 -0.859375 2.40625 -0.6875 C 2.328125 -0.5 2.3125 -0.46875 2.3125 -0.375 C 2.3125 -0.125 2.5625 0.046875 2.859375 0.046875 C 3.375 0.046875 3.65625 -0.59375 3.65625 -0.71875 C 3.65625 -0.78125 3.5625 -0.78125 3.546875 -0.78125 C 3.46875 -0.78125 3.453125 -0.765625 3.421875 -0.671875 C 3.34375 -0.390625 3.125 -0.109375 2.875 -0.109375 C 2.765625 -0.109375 2.71875 -0.1875 2.71875 -0.296875 C 2.71875 -0.40625 2.78125 -0.546875 2.828125 -0.65625 C 2.875 -0.796875 3.09375 -1.34375 3.09375 -1.59375 C 3.09375 -1.9375 2.875 -2.1875 2.359375 -2.1875 C 1.875 -2.1875 1.578125 -1.875 1.4375 -1.71875 Z M 1.828125 -3.25 "/>
</g>
<g id="glyph-1-2">
<path d="M 1.34375 -0.0625 C 1.34375 0.40625 1.078125 0.671875 0.953125 0.78125 C 0.890625 0.828125 0.890625 0.84375 0.890625 0.875 C 0.890625 0.90625 0.9375 0.953125 0.96875 0.953125 C 1.046875 0.953125 1.5 0.578125 1.5 -0.046875 C 1.5 -0.375 1.359375 -0.609375 1.140625 -0.609375 C 0.953125 -0.609375 0.828125 -0.453125 0.828125 -0.296875 C 0.828125 -0.140625 0.953125 0 1.140625 0 C 1.203125 0 1.28125 -0.015625 1.34375 -0.0625 Z M 1.34375 -0.0625 "/>
</g>
</g>
</defs>
<path fill="none" stroke-width="0.3985" stroke-linecap="butt" stroke-linejoin="miter" stroke="rgb(39.216614%, 39.608765%, 40.391541%)" stroke-opacity="1" stroke-miterlimit="10" d="M 0.00144077 0.00040718 L 0.00144077 62.361347 L 107.717934 62.361347 L 107.717934 0.00040718 Z M 0.00144077 0.00040718 " transform="matrix(0.9944, 0, 0, -0.9944, 34.522005, 70.523842)"/>
<path fill="none" stroke-width="0.59776" stroke-linecap="butt" stroke-linejoin="miter" stroke="rgb(61.175537%, 61.959839%, 62.353516%)" stroke-opacity="1" stroke-dasharray="1.19553 1.19553" stroke-miterlimit="10" d="M 21.543954 0.00040718 L 21.543954 62.361347 " transform="matrix(0.9944, 0, 0, -0.9944, 34.522005, 70.523842)"/>
<path fill="none" stroke-width="0.59776" stroke-linecap="butt" stroke-linejoin="miter" stroke="rgb(61.175537%, 61.959839%, 62.353516%)" stroke-opacity="1" stroke-dasharray="1.19553 1.19553" stroke-miterlimit="10" d="M 43.086467 0.00040718 L 43.086467 62.361347 " transform="matrix(0.9944, 0, 0, -0.9944, 34.522005, 70.523842)"/>
<path fill="none" stroke-width="0.59776" stroke-linecap="butt" stroke-linejoin="miter" stroke="rgb(61.175537%, 61.959839%, 62.353516%)" stroke-opacity="1" stroke-dasharray="1.19553 1.19553" stroke-miterlimit="10" d="M 64.62898 0.00040718 L 64.62898 62.361347 " transform="matrix(0.9944, 0, 0, -0.9944, 34.522005, 70.523842)"/>
<path fill="none" stroke-width="0.59776" stroke-linecap="butt" stroke-linejoin="miter" stroke="rgb(61.175537%, 61.959839%, 62.353516%)" stroke-opacity="1" stroke-dasharray="1.19553 1.19553" stroke-miterlimit="10" d="M 86.175421 0.00040718 L 86.175421 62.361347 " transform="matrix(0.9944, 0, 0, -0.9944, 34.522005, 70.523842)"/>
<g fill="rgb(61.175537%, 61.959839%, 62.353516%)" fill-opacity="1">
<use xlink:href="#glyph-0-0" x="43.547179" y="41.112474"/>
</g>
<g fill="rgb(61.175537%, 61.959839%, 62.353516%)" fill-opacity="1">
<use xlink:href="#glyph-0-1" x="64.969538" y="41.112474"/>
</g>
<g fill="rgb(61.175537%, 61.959839%, 62.353516%)" fill-opacity="1">
<use xlink:href="#glyph-0-2" x="86.391898" y="41.112474"/>
</g>
<g fill="rgb(61.175537%, 61.959839%, 62.353516%)" fill-opacity="1">
<use xlink:href="#glyph-0-3" x="107.814257" y="41.112474"/>
</g>
<g fill="rgb(61.175537%, 61.959839%, 62.353516%)" fill-opacity="1">
<use xlink:href="#glyph-0-4" x="129.23761" y="41.112474"/>
</g>
<path fill="none" stroke-width="0.99628" stroke-linecap="butt" stroke-linejoin="miter" stroke="rgb(79.998779%, 2.74353%, 11.764526%)" stroke-opacity="1" stroke-miterlimit="10" d="M -19.844069 45.355961 L -6.975128 45.355961 " transform="matrix(0.9944, 0, 0, -0.9944, 34.522005, 70.523842)"/>
<path fill-rule="nonzero" fill="rgb(79.998779%, 2.74353%, 11.764526%)" fill-opacity="1" stroke-width="0.99628" stroke-linecap="butt" stroke-linejoin="miter" stroke="rgb(79.998779%, 2.74353%, 11.764526%)" stroke-opacity="1" stroke-miterlimit="10" d="M 4.920907 0.00090078 C 4.315957 0.150174 1.660461 1.006532 -0.00118802 1.933599 L -0.00118802 -1.935726 C 1.660461 -1.004731 4.315957 -0.152301 4.920907 0.00090078 Z M 4.920907 0.00090078 " transform="matrix(0.9944, 0, 0, -0.9944, 27.587119, 25.422771)"/>
<path fill="none" stroke-width="0.99628" stroke-linecap="butt" stroke-linejoin="miter" stroke="rgb(79.998779%, 2.74353%, 11.764526%)" stroke-opacity="1" stroke-miterlimit="10" d="M 107.717934 45.355961 L 120.586875 45.355961 " transform="matrix(0.9944, 0, 0, -0.9944, 34.522005, 70.523842)"/>
<path fill-rule="nonzero" fill="rgb(79.998779%, 2.74353%, 11.764526%)" fill-opacity="1" stroke-width="0.99628" stroke-linecap="butt" stroke-linejoin="miter" stroke="rgb(79.998779%, 2.74353%, 11.764526%)" stroke-opacity="1" stroke-miterlimit="10" d="M 4.918352 0.00090078 C 4.31733 0.150174 1.661834 1.006532 0.000185453 1.933599 L 0.000185453 -1.935726 C 1.661834 -1.004731 4.31733 -0.152301 4.918352 0.00090078 Z M 4.918352 0.00090078 " transform="matrix(0.9944, 0, 0, -0.9944, 154.433409, 25.422771)"/>
<g fill="rgb(79.998779%, 2.74353%, 11.764526%)" fill-opacity="1">
<use xlink:href="#glyph-0-5" x="16.206151" y="12.283823"/>
</g>
<g fill="rgb(79.998779%, 2.74353%, 11.764526%)" fill-opacity="1">
<use xlink:href="#glyph-1-0" x="14.164358" y="12.283823"/>
</g>
<g fill="rgb(79.998779%, 2.74353%, 11.764526%)" fill-opacity="1">
<use xlink:href="#glyph-0-6" x="20.245404" y="13.274246"/>
<use xlink:href="#glyph-0-7" x="22.962842" y="13.274246"/>
<use xlink:href="#glyph-0-8" x="25.989867" y="13.274246"/>
</g>
<g fill="rgb(79.998779%, 2.74353%, 11.764526%)" fill-opacity="1">
<use xlink:href="#glyph-1-1" x="11.163549" y="18.227352"/>
</g>
<g fill="rgb(79.998779%, 2.74353%, 11.764526%)" fill-opacity="1">
<use xlink:href="#glyph-0-6" x="15.26346" y="19.888994"/>
<use xlink:href="#glyph-0-7" x="17.980898" y="19.888994"/>
<use xlink:href="#glyph-0-8" x="21.007923" y="19.888994"/>
</g>
<g fill="rgb(79.998779%, 2.74353%, 11.764526%)" fill-opacity="1">
<use xlink:href="#glyph-1-2" x="24.034949" y="19.888994"/>
</g>
<g fill="rgb(79.998779%, 2.74353%, 11.764526%)" fill-opacity="1">
<use xlink:href="#glyph-0-9" x="26.305094" y="19.888994"/>
<use xlink:href="#glyph-0-10" x="28.300326" y="19.888994"/>
</g>
<g fill="rgb(79.998779%, 2.74353%, 11.764526%)" fill-opacity="1">
<use xlink:href="#glyph-1-1" x="143.025961" y="18.547549"/>
</g>
<g fill="rgb(79.998779%, 2.74353%, 11.764526%)" fill-opacity="1">
<use xlink:href="#glyph-0-6" x="147.124878" y="19.888994"/>
<use xlink:href="#glyph-0-7" x="149.842315" y="19.888994"/>
<use xlink:href="#glyph-0-8" x="152.869341" y="19.888994"/>
</g>
<g fill="rgb(79.998779%, 2.74353%, 11.764526%)" fill-opacity="1">
<use xlink:href="#glyph-1-2" x="155.896367" y="19.888994"/>
</g>
<g fill="rgb(79.998779%, 2.74353%, 11.764526%)" fill-opacity="1">
<use xlink:href="#glyph-0-11" x="158.166512" y="19.888994"/>
<use xlink:href="#glyph-0-12" x="161.537799" y="19.888994"/>
<use xlink:href="#glyph-0-13" x="165.252853" y="19.888994"/>
</g>
<path fill="none" stroke-width="0.99628" stroke-linecap="butt" stroke-linejoin="miter" stroke="rgb(0%, 32.939148%, 62.353516%)" stroke-opacity="1" stroke-miterlimit="10" d="M 127.559516 17.009722 L 114.690575 17.009722 " transform="matrix(0.9944, 0, 0, -0.9944, 34.522005, 70.523842)"/>
<path fill-rule="nonzero" fill="rgb(0%, 32.939148%, 62.353516%)" fill-opacity="1" stroke-width="0.99628" stroke-linecap="butt" stroke-linejoin="miter" stroke="rgb(0%, 32.939148%, 62.353516%)" stroke-opacity="1" stroke-miterlimit="10" d="M 4.919472 -0.00148184 C 4.314522 0.15172 1.659026 1.00415 0.00130508 1.935145 L 0.00130508 -1.93418 C 1.659026 -1.003185 4.314522 -0.150755 4.919472 -0.00148184 Z M 4.919472 -0.00148184 " transform="matrix(-0.9944, 0, 0, 0.9944, 148.57161, 53.610849)"/>
<path fill="none" stroke-width="0.99628" stroke-linecap="butt" stroke-linejoin="miter" stroke="rgb(0%, 32.939148%, 62.353516%)" stroke-opacity="1" stroke-miterlimit="10" d="M 0.00144077 17.009722 L -12.8675 17.009722 " transform="matrix(0.9944, 0, 0, -0.9944, 34.522005, 70.523842)"/>
<path fill-rule="nonzero" fill="rgb(0%, 32.939148%, 62.353516%)" fill-opacity="1" stroke-width="0.99628" stroke-linecap="butt" stroke-linejoin="miter" stroke="rgb(0%, 32.939148%, 62.353516%)" stroke-opacity="1" stroke-miterlimit="10" d="M 4.920865 -0.00148184 C 4.315915 0.15172 1.660419 1.00415 -0.0012297 1.935145 L -0.0012297 -1.93418 C 1.660419 -1.003185 4.315915 -0.150755 4.920865 -0.00148184 Z M 4.920865 -0.00148184 " transform="matrix(-0.9944, 0, 0, 0.9944, 21.72534, 53.610849)"/>
<g fill="rgb(0%, 32.939148%, 62.353516%)" fill-opacity="1">
<use xlink:href="#glyph-0-5" x="150.326846" y="61.549382"/>
</g>
<g fill="rgb(0%, 32.939148%, 62.353516%)" fill-opacity="1">
<use xlink:href="#glyph-1-0" x="148.285052" y="61.549382"/>
</g>
<g fill="rgb(0%, 32.939148%, 62.353516%)" fill-opacity="1">
<use xlink:href="#glyph-0-14" x="154.365104" y="63.282622"/>
<use xlink:href="#glyph-0-7" x="157.048363" y="63.282622"/>
<use xlink:href="#glyph-0-15" x="160.075389" y="63.282622"/>
</g>
<g fill="rgb(0%, 32.939148%, 62.353516%)" fill-opacity="1">
<use xlink:href="#glyph-1-1" x="145.284243" y="67.493906"/>
</g>
<g fill="rgb(0%, 32.939148%, 62.353516%)" fill-opacity="1">
<use xlink:href="#glyph-0-14" x="149.38316" y="69.227145"/>
<use xlink:href="#glyph-0-7" x="152.066419" y="69.227145"/>
<use xlink:href="#glyph-0-15" x="155.093445" y="69.227145"/>
</g>
<g fill="rgb(0%, 32.939148%, 62.353516%)" fill-opacity="1">
<use xlink:href="#glyph-1-2" x="157.696459" y="69.227145"/>
</g>
<g fill="rgb(0%, 32.939148%, 62.353516%)" fill-opacity="1">
<use xlink:href="#glyph-0-9" x="159.966605" y="69.227145"/>
<use xlink:href="#glyph-0-10" x="161.961836" y="69.227145"/>
</g>
<g fill="rgb(0%, 32.939148%, 62.353516%)" fill-opacity="1">
<use xlink:href="#glyph-1-1" x="9.36269" y="61.621974"/>
</g>
<g fill="rgb(0%, 32.939148%, 62.353516%)" fill-opacity="1">
<use xlink:href="#glyph-0-14" x="13.462602" y="63.356207"/>
<use xlink:href="#glyph-0-7" x="16.145861" y="63.356207"/>
<use xlink:href="#glyph-0-15" x="19.172887" y="63.356207"/>
</g>
<g fill="rgb(0%, 32.939148%, 62.353516%)" fill-opacity="1">
<use xlink:href="#glyph-1-2" x="21.775901" y="63.356207"/>
</g>
<g fill="rgb(0%, 32.939148%, 62.353516%)" fill-opacity="1">
<use xlink:href="#glyph-0-11" x="24.046046" y="63.356207"/>
<use xlink:href="#glyph-0-12" x="27.417333" y="63.356207"/>
<use xlink:href="#glyph-0-13" x="31.132387" y="63.356207"/>
</g>
</svg>
